<?xml version="1.0" encoding="utf-8"?>
<!-- Generator: Adobe Illustrator 19.1.0, SVG Export Plug-In . SVG Version: 6.00 Build 0)  -->
<svg version="1.1" id="Layer_1" xmlns="http://www.w3.org/2000/svg" xmlns:xlink="http://www.w3.org/1999/xlink" x="0px" y="0px"
	 viewBox="0 0 612 792" style="enable-background:new 0 0 612 792;" xml:space="preserve">
<style type="text/css">
	.st0{fill:#B3E2F3;}
	.st1{fill:#97D8E2;}
	.st2{fill:#F6ACC8;}
	.st3{fill:#FFFFFF;}
	.st4{fill:#502622;}
	.st5{fill:#A38153;}
	.st6{fill:#B61E41;}
</style>
<ellipse class="st0" cx="215" cy="458.5" rx="62.4" ry="68.5"/>
<path class="st1" d="M306.2,407.5c57.1,0,114.3,0,171.4,0c8.4,0,13.8,5.4,13.7,13.8c-0.6,33.1-12.4,61.7-34.9,85.8
	c-22,23.6-49.2,38.4-79.7,47.6c-8.9,2.7-18.2,4.2-27.3,6.5c-1.7,0.4-3.8,1.8-4.6,3.3c-8.4,14.8-12.5,30.8-10.4,47.9
	c4.4,35.6,24,58.9,57.8,70c7.2,2.4,15.3,2.5,23,3.4c3.8,0.5,6.7,2.3,8,5.8c1.2,3.3,0.6,7.2-2.3,9.3c-1.9,1.4-4.4,2-6.7,2.5
	c-2.1,0.4-4.3,0.1-6.4,0.1c-68.8,0-137.6,0-206.3,0c-1.7,0-3.4-0.1-5.1-0.4c-4.6-0.9-7.8-4.8-7.3-9c0.5-4.9,4-8,9-8.2
	c25.3-0.6,46.3-10.4,62.5-29.9c13.6-16.4,19.5-35.6,18.2-56.7c-0.8-12.5-4.4-24.3-10.9-35c-0.9-1.5-3-2.8-4.7-3.1
	c-29.5-5.1-57-15.1-81.6-32.2c-24.4-16.9-42.8-38.6-52.9-66.8c-4.6-12.7-6.7-25.9-7.2-39.4c-0.3-9.9,4.8-15.1,14.7-15.1
	C192.8,407.5,249.5,407.5,306.2,407.5C306.2,407.5,306.2,407.5,306.2,407.5z M172.4,433.9c-9.3,0-17,7.3-16.4,16.6
	c0.3,4.7,2,9.6,4.2,13.9c12.3,24.9,32.2,41.8,57.4,52.6c3.3,1.4,7.9,1.5,11.5,0.6c6.9-1.6,11.5-7.9,11.7-15
	c0.2-7.2-3.1-12.5-9.4-15.8c-4-2.1-8.3-3.9-12.2-6.3c-14.2-8.8-25.3-20.3-31.3-36.3C185.4,437.6,179.4,433.9,172.4,433.9z"/>
<g>
	<g>
		<path class="st2" d="M395.6,448.7c-2.6,0-5.2-0.1-7.7-0.4c-19.1-2.2-36-12.1-47-27.6c-12.2,10.7-28,16.7-44.3,16.7
			c-2.6,0-5.2-0.1-7.8-0.4c-19.1-2.2-36-12.1-47-27.6c-12.2,10.7-28,16.7-44.3,16.7c-2.6,0-5.2-0.1-7.8-0.4
			c-36.9-4.2-63.4-37.7-59.2-74.5c3.2-27.9,22.9-50.4,49.6-57.4c-2.2-12.3-2.5-24.8-1.1-37.4c7.5-65.5,62.8-114.9,128.6-114.9
			c5,0,10,0.3,14.9,0.9c34.4,3.9,65.2,21.1,86.7,48.2c21.5,27.1,31.2,61,27.3,95.4c-1.4,12.5-4.6,24.7-9.5,36.2
			c24.5,12.9,38.5,39.3,35.3,67.1C458.5,423.1,429.8,448.7,395.6,448.7C395.6,448.7,395.6,448.7,395.6,448.7z"/>
		<path class="st3" d="M307.7,146.4c4.7,0,9.5,0.3,14.4,0.8c68.4,7.8,117.4,69.6,109.6,138c-1.6,14-5.4,27.1-11.1,39.1
			c24.4,10.7,40.1,36.3,36.9,64.2c-3.6,31.8-30.6,55.2-61.8,55.2c-2.4,0-4.8-0.1-7.2-0.4c-20.3-2.3-37.1-14.1-46.7-30.4
			c-11.5,12.1-27.6,19.5-45.2,19.5c-2.4,0-4.8-0.1-7.2-0.4c-20.2-2.3-37.1-14.1-46.7-30.4C231.2,413.6,215,421,197.5,421
			c-2.4,0-4.8-0.1-7.2-0.4c-34.2-3.9-58.7-34.8-54.8-69c3.2-27.9,24.3-49.3,50.5-54.2c-2.8-13-3.6-26.7-2-40.6
			C191.3,193.2,245.2,146.4,307.7,146.4 M307.7,136.4c-32.8,0-64.5,12-89.2,33.9c-24.9,22-40.6,52.4-44.4,85.4
			c-1.3,11.5-1.2,23.1,0.4,34.4c-11.2,3.8-21.5,10.3-29.7,18.9c-10.8,11.4-17.5,25.8-19.3,41.4c-4.5,39.6,24,75.5,63.6,80.1
			c2.8,0.3,5.6,0.5,8.3,0.5c15.7,0,31-5.2,43.5-14.6c4.5,5.4,9.7,10.1,15.5,13.9c9.4,6.3,20.4,10.3,31.7,11.6
			c2.8,0.3,5.6,0.5,8.3,0.5c15.7,0,31-5.2,43.5-14.6c4.5,5.4,9.7,10.1,15.5,13.9c9.4,6.3,20.4,10.3,31.7,11.6
			c2.8,0.3,5.6,0.5,8.3,0.5c36.7,0,67.6-27.5,71.8-64.1c1.8-15.7-1.5-31.1-9.4-44.7c-6-10.2-14.5-18.9-24.6-25.1
			c4.1-10.7,6.9-21.9,8.2-33.4c4.1-35.7-6-70.9-28.3-99.1c-22.4-28.2-54.4-45.9-90.1-50C318,136.7,312.8,136.4,307.7,136.4
			L307.7,136.4z"/>
	</g>
	<path class="st4" d="M184.1,255.6c4.7,15.4,21.9,6.7,26.2-8.1c4.9-17.1,11.4-36.6,20.9-35c10,1.7,9.3,12.3,9.2,17.4
		c-0.3,16.4,26.1,20.4,28.3-1.9c3.4-34.4,37.1-25.4,33.1,1.2c-2.8,18.2-12.9,81.6,8.8,83.4c17.2,1.5,22.2-28.7,24.7-55
		c2.7-27.8,31.3-23.5,33.2-9c1.5,11.2,2.9,23.9,17.1,25c14.2,1.1,15.2-22.8,16-37.1c0.9-16.8,20.7-18.3,24.4-6.1
		c-15.3-43.7-54.8-78.7-103.8-84.3C253.8,138.3,191.9,187.1,184.1,255.6z"/>
	<g id="NUTS_9_">
		<path class="st5" d="M395.1,201.2c-0.8,1.5-1.9,3.1-3.2,4.6c-4.5,5.2-10.2,7.7-12.6,5.6c-0.1-0.1-0.2-0.2-0.3-0.4
			c-2,3.7-2.3,7.2-0.6,8.7c2.4,2.1,8.1-0.4,12.6-5.6C395.3,209.2,397,203.6,395.1,201.2z"/>
		<path class="st5" d="M291.1,231c-0.7,1.4-1.7,2.8-2.9,4.2c-4.1,4.7-9.2,6.9-11.3,5c-0.1-0.1-0.2-0.2-0.3-0.3
			c-1.8,3.3-2.1,6.4-0.6,7.8c2.2,1.9,7.3-0.4,11.3-5C291.2,238.2,292.8,233.1,291.1,231z"/>
		<path class="st5" d="M273.4,165.2c1.8,0.3,3.7,0.9,5.6,1.8c6.6,2.9,10.9,7.8,9.5,10.9c-0.1,0.2-0.2,0.3-0.3,0.5
			c4.3,0.8,7.9,0.1,8.8-2.1c1.4-3.1-2.9-8-9.5-10.9C281.3,162.6,275.2,162.6,273.4,165.2z"/>
		<path class="st5" d="M398.7,279.6c1.5,0.3,3.2,0.8,4.8,1.5c5.7,2.5,9.3,6.7,8.2,9.4c-0.1,0.1-0.1,0.3-0.2,0.4
			c3.7,0.7,6.8,0.1,7.6-1.8c1.2-2.7-2.5-6.8-8.2-9.4C405.5,277.4,400.3,277.4,398.7,279.6z"/>
		<path class="st5" d="M378.7,175.3c-1.1-2.6-6.6-2.8-12.3-0.4c-0.6,2.2-2,4.8-4.1,7.2c-1.1,1.3-2.3,2.3-3.4,3.2
			c2,1.6,6.7,1.4,11.6-0.7C376.2,182.1,379.9,178,378.7,175.3z"/>
		<path class="st5" d="M237.2,243.1c-1.1-2.6-6.6-2.8-12.3-0.4c-0.6,2.2-2,4.8-4.1,7.2c-1.1,1.3-2.3,2.3-3.4,3.2
			c2,1.6,6.7,1.4,11.6-0.7C234.7,250,238.4,245.8,237.2,243.1z"/>
		<path class="st5" d="M224,189.4c-1.5,2.4,1.5,7.1,6.7,10.3c2.1-0.8,5.1-1.1,8.2-0.7c1.7,0.2,3.2,0.5,4.6,1
			c0.2-2.6-2.7-6.3-7.2-9.1C231,187.6,225.5,186.9,224,189.4z"/>
		<path class="st5" d="M370.7,288.2c-1.5,2.4,1.5,7.1,6.7,10.3c2.1-0.8,5.1-1.1,8.2-0.7c1.7,0.2,3.2,0.5,4.6,1
			c0.2-2.6-2.7-6.3-7.2-9.1C377.7,286.4,372.2,285.8,370.7,288.2z"/>
		<path class="st5" d="M331.3,218.4c-1.5-0.6-3.3,0-5.1,1.4c0,0.6,0,1.3,0,1.9c-0.4,7.6-3.5,13.6-7,13.4c-0.3,0-0.6-0.1-0.9-0.2
			c-0.6,4.3,0.2,7.8,2.4,8.8c3.3,1.4,8.3-3.2,11.2-10.2C334.8,226.6,334.5,219.8,331.3,218.4z"/>
		<path class="st5" d="M303.2,197.2c0.5,1.3,1.8,2.3,3.6,2.8c0.3-0.3,0.7-0.6,1-0.9c4.2-3.4,9.2-4.1,11.1-1.5
			c0.2,0.2,0.3,0.5,0.4,0.7c2.7-1.6,4.1-3.9,3.3-5.9c-1.1-2.9-6.3-4.2-11.7-2.9C305.6,190.9,302.1,194.3,303.2,197.2z"/>
		<path class="st5" d="M393.3,244.8c0.5,1.3,1.8,2.3,3.6,2.8c0.3-0.3,0.7-0.6,1-0.9c4.2-3.4,9.2-4.1,11.1-1.5
			c0.2,0.2,0.3,0.5,0.4,0.7c2.7-1.6,4.1-3.9,3.3-5.9c-1.1-2.9-6.3-4.2-11.7-2.9C395.6,238.4,392.2,241.9,393.3,244.8z"/>
		<path class="st5" d="M317,159.8c-0.3,1.4,0.3,2.9,1.5,4.3c0.4-0.1,0.9-0.2,1.4-0.2c5.4-0.6,10,1.4,10.2,4.6c0,0.3,0,0.5,0,0.8
			c3.1,0,5.5-1.1,5.9-3.2c0.6-3.1-3.2-6.9-8.4-8.7C322.4,155.7,317.6,156.7,317,159.8z"/>
		<path class="st5" d="M210.8,218.8c-1-0.8-2.6-0.8-4.3-0.1c-0.1,0.5-0.3,1-0.5,1.5c-2,5.9-5.9,9.9-8.6,8.9
			c-0.2-0.1-0.5-0.2-0.7-0.4c-1.5,3.3-1.6,6.2-0.1,7.5c2.3,1.8,7.2-0.6,11.1-5.5C211.8,226,213.1,220.6,210.8,218.8z"/>
		<path class="st5" d="M268.7,197.2c-1.6-1.4-1.2-4.4,0.6-7.8c-3.5-3.7-7.6-5.4-9.6-3.9c-2.3,1.8-1,7.2,2.8,12.1
			c3.8,4.9,8.8,7.4,11.1,5.6c1.4-1.1,1.5-3.5,0.5-6.3C271.8,198,269.9,198.2,268.7,197.2z"/>
		<path class="st5" d="M360.6,250c-1.1-2.6-6.6-2.8-12.3-0.4c-0.6,2.2-2,4.8-4.1,7.2c-1.1,1.3-2.3,2.3-3.4,3.2
			c2,1.6,6.7,1.4,11.6-0.7C358.1,256.9,361.8,252.7,360.6,250z"/>
		<path class="st5" d="M357.2,219c1.8-1.8,0.3-6.4-3.5-10.4c-2,0.2-4.6-0.2-7.2-1.2c-1.4-0.5-2.7-1.1-3.7-1.8
			c-0.7,2.2,1,6.1,4.2,9.4C350.7,219.1,355.3,220.8,357.2,219z"/>
		<path class="st5" d="M250.6,271.9c-1.6-1.4-1.2-4.4,0.6-7.8c-3.5-3.7-7.6-5.4-9.6-3.9c-2.3,1.8-1,7.2,2.8,12.1s8.8,7.4,11.1,5.6
			c1.4-1.1,1.5-3.5,0.5-6.3C253.8,272.8,251.8,273,250.6,271.9z"/>
	</g>
</g>
<path class="st6" d="M323.1,126.2c-7.4-11.1-30.3-8.4-34.7,9.3c-3,12.1,1.1,26.2,13.6,32.5c14.6,7.4,36.3,6.5,48.5-2.1
	c10.4-7.4,16.4-21,12.8-32.9c-5.4-17.8-29.5-18.9-35.9-6.8c-2.6-14.7,3.6-30.6,34.1-32.5l3.3-5.2C364.7,88.5,316.3,88.5,323.1,126.2
	z"/>
</svg>
