<?xml version="1.0" encoding="utf-8"?>
<!-- Generator: Adobe Illustrator 19.1.0, SVG Export Plug-In . SVG Version: 6.00 Build 0)  -->
<svg version="1.1" xmlns="http://www.w3.org/2000/svg" xmlns:xlink="http://www.w3.org/1999/xlink" x="0px" y="0px"
	 viewBox="0 0 612 792" style="enable-background:new 0 0 612 792;" xml:space="preserve">
<style type="text/css">
	.st0{display:none;}
	.st1{display:inline;}
	.st2{fill:#B3E2F3;}
	.st3{fill:#97D8E2;}
	.st4{fill:#F6ACC8;}
	.st5{fill:#FFFFFF;}
	.st6{fill:#502622;}
	.st7{fill:#A38153;}
	.st8{fill:#B61E41;}
	.st9{fill:#FFE8C7;}
	.st10{fill:#763834;}
</style>
<g id="Layer_1" class="st0">
	<g class="st1">
		<ellipse class="st2" cx="232.6" cy="454.6" rx="62.4" ry="68.5"/>
		<path class="st3" d="M323.8,403.6c57.1,0,114.3,0,171.4,0c8.4,0,13.8,5.4,13.7,13.8c-0.6,33.1-12.4,61.7-34.9,85.8
			c-22,23.6-49.2,38.4-79.7,47.6c-8.9,2.7-18.2,4.2-27.3,6.5c-1.7,0.4-3.8,1.8-4.6,3.3c-8.4,14.8-12.5,30.8-10.4,47.9
			c4.4,35.6,24,58.9,57.8,70c7.2,2.4,15.3,2.5,23,3.4c3.8,0.5,6.7,2.3,8,5.8c1.2,3.3,0.6,7.2-2.3,9.3c-1.9,1.4-4.4,2-6.7,2.5
			c-2.1,0.4-4.3,0.1-6.4,0.1c-68.8,0-137.6,0-206.3,0c-1.7,0-3.4-0.1-5.1-0.4c-4.6-0.9-7.8-4.8-7.3-9c0.5-4.9,4-8,9-8.2
			c25.3-0.6,46.3-10.4,62.5-29.9c13.6-16.4,19.5-35.6,18.2-56.7c-0.8-12.5-4.4-24.3-10.9-35c-0.9-1.5-3-2.8-4.7-3.1
			c-29.5-5.1-57-15.1-81.6-32.2c-24.4-16.9-42.8-38.6-52.9-66.8c-4.6-12.7-6.7-25.9-7.2-39.4c-0.3-9.9,4.8-15.1,14.7-15.1
			C210.4,403.6,267.1,403.6,323.8,403.6C323.8,403.6,323.8,403.6,323.8,403.6z M190,430c-9.3,0-17,7.3-16.4,16.6
			c0.3,4.7,2,9.6,4.2,13.9c12.3,24.9,32.2,41.8,57.4,52.6c3.3,1.4,7.9,1.5,11.5,0.6c6.9-1.6,11.5-7.9,11.7-15
			c0.2-7.2-3.1-12.5-9.4-15.8c-4-2.1-8.3-3.9-12.2-6.3c-14.2-8.8-25.3-20.3-31.3-36.3C203,433.8,197,430,190,430z"/>
		<g>
			<g>
				<path class="st4" d="M413.2,444.8c-2.6,0-5.2-0.1-7.7-0.4c-19.1-2.2-36-12.1-47-27.6c-12.2,10.7-28,16.7-44.3,16.7
					c-2.6,0-5.2-0.1-7.8-0.4c-19.1-2.2-36-12.1-47-27.6c-12.2,10.7-28,16.7-44.3,16.7c-2.6,0-5.2-0.1-7.8-0.4
					c-36.9-4.2-63.4-37.7-59.2-74.5c3.2-27.9,22.9-50.4,49.6-57.4c-2.2-12.3-2.5-24.8-1.1-37.4c7.5-65.5,62.8-114.9,128.6-114.9
					c5,0,10,0.3,14.9,0.9c71,8.1,122.1,72.5,114,143.6c-1.4,12.5-4.6,24.7-9.5,36.2c24.5,12.9,38.5,39.3,35.3,67.1
					C476.1,419.2,447.4,444.8,413.2,444.8C413.2,444.8,413.2,444.8,413.2,444.8z"/>
				<path class="st5" d="M325.3,142.5c4.7,0,9.5,0.3,14.4,0.8c68.4,7.8,117.4,69.6,109.6,138c-1.6,14-5.4,27.1-11.1,39.1
					c24.4,10.7,40.1,36.3,36.9,64.2c-3.6,31.8-30.6,55.2-61.8,55.2c-2.4,0-4.8-0.1-7.2-0.4c-20.3-2.3-37.1-14.1-46.7-30.4
					c-11.5,12.1-27.6,19.5-45.2,19.5c-2.4,0-4.8-0.1-7.2-0.4c-20.2-2.3-37.1-14.1-46.7-30.4c-11.5,12.1-27.6,19.5-45.2,19.5
					c-2.4,0-4.8-0.1-7.2-0.4c-34.2-3.9-58.7-34.8-54.8-69c3.2-27.9,24.3-49.3,50.5-54.2c-2.8-13-3.6-26.7-2-40.6
					C208.9,189.4,262.8,142.5,325.3,142.5 M325.3,132.5c-32.8,0-64.5,12-89.2,33.9c-24.9,22-40.6,52.4-44.4,85.4
					c-1.3,11.5-1.2,23.1,0.4,34.4c-11.2,3.8-21.5,10.3-29.7,18.9c-10.8,11.4-17.5,25.8-19.3,41.4c-2.2,19.2,3.2,38.1,15.2,53.2
					c12,15.1,29.2,24.7,48.4,26.9c2.8,0.3,5.6,0.5,8.3,0.5c15.7,0,31-5.2,43.5-14.6c4.5,5.4,9.7,10.1,15.5,13.9
					c9.4,6.3,20.4,10.3,31.7,11.6c2.8,0.3,5.6,0.5,8.3,0.5c15.7,0,31-5.2,43.5-14.6c4.5,5.4,9.7,10.1,15.5,13.9
					c9.4,6.3,20.4,10.3,31.7,11.6c2.8,0.3,5.6,0.5,8.3,0.5c36.7,0,67.6-27.5,71.8-64.1c1.8-15.7-1.5-31.1-9.4-44.7
					c-6-10.2-14.5-18.9-24.6-25.1c4.1-10.7,6.9-21.9,8.2-33.4c4.1-35.7-6-70.9-28.3-99.1c-22.4-28.2-54.4-45.9-90.1-50
					C335.6,132.8,330.4,132.5,325.3,132.5L325.3,132.5z"/>
			</g>
			<path class="st6" d="M201.7,251.7c4.7,15.4,21.9,6.7,26.2-8.1c4.9-17.1,11.4-36.6,20.9-35c10,1.7,9.3,12.3,9.2,17.4
				c-0.3,16.4,26.1,20.4,28.3-1.9c3.4-34.4,37.1-25.4,33.1,1.2c-2.8,18.2-12.9,81.6,8.8,83.4c17.2,1.5,22.2-28.7,24.7-55
				c2.7-27.8,31.3-23.5,33.2-9c1.5,11.2,2.9,23.9,17.1,25c14.2,1.1,15.2-22.8,16-37.1c0.9-16.8,20.7-18.3,24.4-6.1
				c-15.3-43.7-54.8-78.7-103.8-84.3C271.4,134.5,209.5,183.2,201.7,251.7z"/>
			<g id="NUTS_9_">
				<path class="st7" d="M412.7,197.3c-0.8,1.5-1.9,3.1-3.2,4.6c-4.5,5.2-10.2,7.7-12.6,5.6c-0.1-0.1-0.2-0.2-0.3-0.4
					c-2,3.7-2.3,7.2-0.6,8.7c2.4,2.1,8.1-0.4,12.6-5.6C412.9,205.3,414.6,199.7,412.7,197.3z"/>
				<path class="st7" d="M308.7,227.1c-0.7,1.4-1.7,2.8-2.9,4.2c-4.1,4.7-9.2,6.9-11.3,5c-0.1-0.1-0.2-0.2-0.3-0.3
					c-1.8,3.3-2.1,6.4-0.6,7.8c2.2,1.9,7.3-0.4,11.3-5C308.8,234.3,310.4,229.3,308.7,227.1z"/>
				<path class="st7" d="M291,161.3c1.8,0.3,3.7,0.9,5.6,1.8c6.6,2.9,10.9,7.8,9.5,10.9c-0.1,0.2-0.2,0.3-0.3,0.5
					c4.3,0.8,7.9,0.1,8.8-2.1c1.4-3.1-2.9-8-9.5-10.9C298.9,158.7,292.8,158.7,291,161.3z"/>
				<path class="st7" d="M416.3,275.7c1.5,0.3,3.2,0.8,4.8,1.5c5.7,2.5,9.3,6.7,8.2,9.4c-0.1,0.1-0.1,0.3-0.2,0.4
					c3.7,0.7,6.8,0.1,7.6-1.8c1.2-2.7-2.5-6.8-8.2-9.4C423.1,273.5,417.9,273.5,416.3,275.7z"/>
				<path class="st7" d="M396.3,171.4c-1.1-2.6-6.6-2.8-12.3-0.4c-0.6,2.2-2,4.8-4.1,7.2c-1.1,1.3-2.3,2.3-3.4,3.2
					c2,1.6,6.7,1.4,11.6-0.7C393.8,178.2,397.5,174.1,396.3,171.4z"/>
				<path class="st7" d="M254.8,239.3c-1.1-2.6-6.6-2.8-12.3-0.4c-0.6,2.2-2,4.8-4.1,7.2c-1.1,1.3-2.3,2.3-3.4,3.2
					c2,1.6,6.7,1.4,11.6-0.7C252.3,246.1,255.9,241.9,254.8,239.3z"/>
				<path class="st7" d="M241.6,185.5c-1.5,2.4,1.5,7.1,6.7,10.3c2.1-0.8,5.1-1.1,8.2-0.7c1.7,0.2,3.2,0.5,4.6,1
					c0.2-2.6-2.7-6.3-7.2-9.1C248.6,183.7,243.1,183,241.6,185.5z"/>
				<path class="st7" d="M388.3,284.3c-1.5,2.4,1.5,7.1,6.7,10.3c2.1-0.8,5.1-1.1,8.2-0.7c1.7,0.2,3.2,0.5,4.6,1
					c0.2-2.6-2.7-6.3-7.2-9.1C395.3,282.5,389.8,281.9,388.3,284.3z"/>
				<path class="st7" d="M348.9,214.5c-1.5-0.6-3.3,0-5.1,1.4c0,0.6,0,1.3,0,1.9c-0.4,7.6-3.5,13.6-7,13.4c-0.3,0-0.6-0.1-0.9-0.2
					c-0.6,4.3,0.2,7.8,2.4,8.8c3.3,1.4,8.3-3.2,11.2-10.2C352.4,222.7,352.1,215.9,348.9,214.5z"/>
				<path class="st7" d="M320.8,193.3c0.5,1.3,1.8,2.3,3.6,2.8c0.3-0.3,0.7-0.6,1-0.9c4.2-3.4,9.2-4.1,11.1-1.5
					c0.2,0.2,0.3,0.5,0.4,0.7c2.7-1.6,4.1-3.9,3.3-5.9c-1.1-2.9-6.3-4.2-11.7-2.9C323.2,187,319.7,190.4,320.8,193.3z"/>
				<path class="st7" d="M410.9,240.9c0.5,1.3,1.8,2.3,3.6,2.8c0.3-0.3,0.7-0.6,1-0.9c4.2-3.4,9.2-4.1,11.1-1.5
					c0.2,0.2,0.3,0.5,0.4,0.7c2.7-1.6,4.1-3.9,3.3-5.9c-1.1-2.9-6.3-4.2-11.7-2.9C413.2,234.6,409.8,238,410.9,240.9z"/>
				<path class="st7" d="M334.6,155.9c-0.3,1.4,0.3,2.9,1.5,4.3c0.4-0.1,0.9-0.2,1.4-0.2c5.4-0.6,10,1.4,10.2,4.6c0,0.3,0,0.5,0,0.8
					c3.1,0,5.5-1.1,5.9-3.2c0.6-3.1-3.2-6.9-8.4-8.7C340,151.8,335.2,152.9,334.6,155.9z"/>
				<path class="st7" d="M228.4,214.9c-1-0.8-2.6-0.8-4.3-0.1c-0.1,0.5-0.3,1-0.5,1.5c-2,5.9-5.9,9.9-8.6,8.9
					c-0.2-0.1-0.5-0.2-0.7-0.4c-1.5,3.3-1.6,6.2-0.1,7.5c2.3,1.8,7.2-0.6,11.1-5.5C229.4,222.1,230.7,216.7,228.4,214.9z"/>
				<path class="st7" d="M286.3,193.3c-1.6-1.4-1.2-4.4,0.6-7.8c-3.5-3.7-7.6-5.4-9.6-3.9c-2.3,1.8-1,7.2,2.8,12.1
					c3.8,4.9,8.8,7.4,11.1,5.6c1.4-1.1,1.5-3.5,0.5-6.3C289.4,194.2,287.5,194.3,286.3,193.3z"/>
				<path class="st7" d="M378.2,246.2c-1.1-2.6-6.6-2.8-12.3-0.4c-0.6,2.2-2,4.8-4.1,7.2c-1.1,1.3-2.3,2.3-3.4,3.2
					c2,1.6,6.7,1.4,11.6-0.7C375.7,253,379.4,248.8,378.2,246.2z"/>
				<path class="st7" d="M374.8,215.1c1.8-1.8,0.3-6.4-3.5-10.4c-2,0.2-4.6-0.2-7.2-1.2c-1.4-0.5-2.7-1.1-3.7-1.8
					c-0.7,2.2,1,6.1,4.2,9.4C368.3,215.2,372.9,216.9,374.8,215.1z"/>
				<path class="st7" d="M268.2,268.1c-1.6-1.4-1.2-4.4,0.6-7.8c-3.5-3.7-7.6-5.4-9.6-3.9c-2.3,1.8-1,7.2,2.8,12.1
					c3.8,4.9,8.8,7.4,11.1,5.6c1.4-1.1,1.5-3.5,0.5-6.3C271.4,268.9,269.4,269.1,268.2,268.1z"/>
			</g>
		</g>
		<path class="st8" d="M340.7,122.3c-7.4-11.1-30.3-8.4-34.7,9.3c-3,12.1,1.1,26.2,13.6,32.5c14.6,7.4,36.3,6.5,48.5-2.1
			c10.4-7.4,16.4-21,12.8-32.9c-5.4-17.8-29.5-18.9-35.9-6.8c-2.6-14.7,3.6-30.6,34.1-32.5l3.3-5.2
			C382.3,84.6,333.9,84.6,340.7,122.3z"/>
	</g>
	<g class="st1">
		<path class="st3" d="M323.8,403.1c57.1,0,114.3,0,171.4,0c8.4,0,13.8,5.4,13.7,13.8c-0.6,33.1-12.4,61.7-34.9,85.8
			c-22,23.6-49.2,38.4-79.7,47.6c-8.9,2.7-18.2,4.2-27.3,6.5c-1.7,0.4-3.8,1.8-4.6,3.3c-8.4,14.8-12.5,30.8-10.4,47.9
			c4.4,35.6,24,58.9,57.8,70c7.2,2.4,15.3,2.5,23,3.4c3.8,0.5,6.7,2.3,8,5.8c1.2,3.3,0.6,7.2-2.3,9.3c-1.9,1.4-4.4,2-6.7,2.5
			c-2.1,0.4-4.3,0.1-6.4,0.1c-68.8,0-137.6,0-206.3,0c-1.7,0-3.4-0.1-5.1-0.4c-4.6-0.9-7.8-4.8-7.3-9c0.5-4.9,4-8,9-8.2
			c25.3-0.6,46.3-10.4,62.5-29.9c13.6-16.4,19.5-35.6,18.2-56.7c-0.8-12.5-4.4-24.3-10.9-35c-0.9-1.5-3-2.8-4.7-3.1
			c-29.5-5.1-57-15.1-81.6-32.2c-24.4-16.9-42.8-38.6-52.9-66.8c-4.6-12.7-6.7-25.9-7.2-39.4c-0.3-9.9,4.8-15.1,14.7-15.1
			C210.4,403.1,267.1,403.1,323.8,403.1C323.8,403.1,323.8,403.1,323.8,403.1z M190,429.5c-9.3,0-17,7.3-16.4,16.6
			c0.3,4.7,2,9.6,4.2,13.9c12.3,24.9,32.2,41.8,57.4,52.6c3.3,1.4,7.9,1.5,11.5,0.6c6.9-1.6,11.5-7.9,11.7-15
			c0.2-7.2-3.1-12.5-9.4-15.8c-4-2.1-8.3-3.9-12.2-6.3c-14.2-8.8-25.3-20.3-31.3-36.3C203,433.2,197,429.5,190,429.5z"/>
		<g>
			<g>
				<path class="st9" d="M413.2,444.3c-2.6,0-5.2-0.1-7.7-0.4c-19.1-2.2-36-12.1-47-27.6c-12.2,10.7-28,16.7-44.3,16.7
					c-2.6,0-5.2-0.1-7.8-0.4c-19.1-2.2-36-12.1-47-27.6c-12.2,10.7-28,16.7-44.3,16.7c-2.6,0-5.2-0.1-7.8-0.4
					c-36.9-4.2-63.4-37.7-59.2-74.5c3.2-27.9,22.9-50.4,49.6-57.4c-2.2-12.3-2.5-24.8-1.1-37.4c7.5-65.5,62.8-114.9,128.6-114.9
					c5,0,10,0.3,14.9,0.9c34.4,3.9,65.2,21.1,86.7,48.2c21.5,27.1,31.2,61,27.3,95.4c-1.4,12.5-4.6,24.7-9.5,36.2
					c24.5,12.9,38.5,39.3,35.3,67.1C476.1,418.7,447.4,444.3,413.2,444.3C413.2,444.3,413.2,444.3,413.2,444.3z"/>
				<path class="st5" d="M325.3,142c4.7,0,9.5,0.3,14.4,0.8c68.4,7.8,117.4,69.6,109.6,138c-1.6,14-5.4,27.1-11.1,39.1
					c24.4,10.7,40.1,36.3,36.9,64.2c-3.6,31.8-30.6,55.2-61.8,55.2c-2.4,0-4.8-0.1-7.2-0.4c-20.3-2.3-37.1-14.1-46.7-30.4
					c-11.5,12.1-27.6,19.5-45.2,19.5c-2.4,0-4.8-0.1-7.2-0.4c-20.2-2.3-37.1-14.1-46.7-30.4c-11.5,12.1-27.6,19.5-45.2,19.5
					c-2.4,0-4.8-0.1-7.2-0.4c-34.2-3.9-58.7-34.8-54.8-69c3.2-27.9,24.3-49.3,50.5-54.2c-2.8-13-3.6-26.7-2-40.6
					C208.9,188.9,262.8,142,325.3,142 M325.3,132c-32.8,0-64.5,12-89.2,33.9c-24.9,22-40.6,52.4-44.4,85.4
					c-1.3,11.5-1.2,23.1,0.4,34.4c-11.2,3.8-21.5,10.3-29.7,18.9C151.7,316,145,330.4,143.2,346c-4.5,39.6,24,75.5,63.6,80.1
					c2.8,0.3,5.6,0.5,8.3,0.5c15.7,0,31-5.2,43.5-14.6c4.5,5.4,9.7,10.1,15.5,13.9c9.4,6.3,20.4,10.3,31.7,11.6
					c2.8,0.3,5.6,0.5,8.3,0.5c15.7,0,31-5.2,43.5-14.6c4.5,5.4,9.7,10.1,15.5,13.9c9.4,6.3,20.4,10.3,31.7,11.6
					c2.8,0.3,5.6,0.5,8.3,0.5c36.7,0,67.6-27.5,71.8-64.1c1.8-15.7-1.5-31.1-9.4-44.7c-6-10.2-14.5-18.9-24.6-25.1
					c4.1-10.7,6.9-21.9,8.2-33.4c4.1-35.7-6-70.9-28.3-99.1c-22.4-28.2-54.4-45.9-90.1-50C335.6,132.3,330.4,132,325.3,132
					L325.3,132z"/>
			</g>
			<path class="st6" d="M201.7,251.2c4.7,15.4,21.9,6.7,26.2-8.1c4.9-17.1,11.4-36.6,20.9-35c10,1.7,9.3,12.3,9.2,17.4
				c-0.3,16.4,26.1,20.4,28.3-1.9c3.4-34.4,37.1-25.4,33.1,1.2c-2.8,18.2-12.9,81.6,8.8,83.4c17.2,1.5,22.2-28.7,24.7-55
				c2.7-27.8,31.3-23.5,33.2-9c1.5,11.2,2.9,23.9,17.1,25c14.2,1.1,15.2-22.8,16-37.1c0.9-16.8,20.7-18.3,24.4-6.1
				c-15.3-43.7-54.8-78.7-103.8-84.3C271.4,134,209.5,182.7,201.7,251.2z"/>
			<g id="NUTS_27_">
				<path class="st7" d="M412.7,196.8c-0.8,1.5-1.9,3.1-3.2,4.6c-4.5,5.2-10.2,7.7-12.6,5.6c-0.1-0.1-0.2-0.2-0.3-0.4
					c-2,3.7-2.3,7.2-0.6,8.7c2.4,2.1,8.1-0.4,12.6-5.6C412.9,204.8,414.6,199.2,412.7,196.8z"/>
				<path class="st7" d="M308.7,226.6c-0.7,1.4-1.7,2.8-2.9,4.2c-4.1,4.7-9.2,6.9-11.3,5c-0.1-0.1-0.2-0.2-0.3-0.3
					c-1.8,3.3-2.1,6.4-0.6,7.8c2.2,1.9,7.3-0.4,11.3-5C308.8,233.8,310.4,228.8,308.7,226.6z"/>
				<path class="st7" d="M291,160.8c1.8,0.3,3.7,0.9,5.6,1.8c6.6,2.9,10.9,7.8,9.5,10.9c-0.1,0.2-0.2,0.3-0.3,0.5
					c4.3,0.8,7.9,0.1,8.8-2.1c1.4-3.1-2.9-8-9.5-10.9C298.9,158.2,292.8,158.2,291,160.8z"/>
				<path class="st7" d="M416.3,275.2c1.5,0.3,3.2,0.8,4.8,1.5c5.7,2.5,9.3,6.7,8.2,9.4c-0.1,0.1-0.1,0.3-0.2,0.4
					c3.7,0.7,6.8,0.1,7.6-1.8c1.2-2.7-2.5-6.8-8.2-9.4C423.1,273,417.9,273,416.3,275.2z"/>
				<path class="st7" d="M396.3,170.9c-1.1-2.6-6.6-2.8-12.3-0.4c-0.6,2.2-2,4.8-4.1,7.2c-1.1,1.3-2.3,2.3-3.4,3.2
					c2,1.6,6.7,1.4,11.6-0.7C393.8,177.7,397.5,173.6,396.3,170.9z"/>
				<path class="st7" d="M254.8,238.8c-1.1-2.6-6.6-2.8-12.3-0.4c-0.6,2.2-2,4.8-4.1,7.2c-1.1,1.3-2.3,2.3-3.4,3.2
					c2,1.6,6.7,1.4,11.6-0.7C252.3,245.6,255.9,241.4,254.8,238.8z"/>
				<path class="st7" d="M241.6,185c-1.5,2.4,1.5,7.1,6.7,10.3c2.1-0.8,5.1-1.1,8.2-0.7c1.7,0.2,3.2,0.5,4.6,1
					c0.2-2.6-2.7-6.3-7.2-9.1C248.6,183.2,243.1,182.5,241.6,185z"/>
				<path class="st7" d="M388.3,283.8c-1.5,2.4,1.5,7.1,6.7,10.3c2.1-0.8,5.1-1.1,8.2-0.7c1.7,0.2,3.2,0.5,4.6,1
					c0.2-2.6-2.7-6.3-7.2-9.1C395.3,282,389.8,281.4,388.3,283.8z"/>
				<path class="st7" d="M348.9,214c-1.5-0.6-3.3,0-5.1,1.4c0,0.6,0,1.3,0,1.9c-0.4,7.6-3.5,13.6-7,13.4c-0.3,0-0.6-0.1-0.9-0.2
					c-0.6,4.3,0.2,7.8,2.4,8.8c3.3,1.4,8.3-3.2,11.2-10.2C352.4,222.2,352.1,215.4,348.9,214z"/>
				<path class="st7" d="M320.8,192.8c0.5,1.3,1.8,2.3,3.6,2.8c0.3-0.3,0.7-0.6,1-0.9c4.2-3.4,9.2-4.1,11.1-1.5
					c0.2,0.2,0.3,0.5,0.4,0.7c2.7-1.6,4.1-3.9,3.3-5.9c-1.1-2.9-6.3-4.2-11.7-2.9C323.2,186.5,319.7,189.9,320.8,192.8z"/>
				<path class="st7" d="M410.9,240.4c0.5,1.3,1.8,2.3,3.6,2.8c0.3-0.3,0.7-0.6,1-0.9c4.2-3.4,9.2-4.1,11.1-1.5
					c0.2,0.2,0.3,0.5,0.4,0.7c2.7-1.6,4.1-3.9,3.3-5.9c-1.1-2.9-6.3-4.2-11.7-2.9C413.2,234.1,409.8,237.5,410.9,240.4z"/>
				<path class="st7" d="M334.6,155.4c-0.3,1.4,0.3,2.9,1.5,4.3c0.4-0.1,0.9-0.2,1.4-0.2c5.4-0.6,10,1.4,10.2,4.6c0,0.3,0,0.5,0,0.8
					c3.1,0,5.5-1.1,5.9-3.2c0.6-3.1-3.2-6.9-8.4-8.7C340,151.3,335.2,152.4,334.6,155.4z"/>
				<path class="st7" d="M228.4,214.4c-1-0.8-2.6-0.8-4.3-0.1c-0.1,0.5-0.3,1-0.5,1.5c-2,5.9-5.9,9.9-8.6,8.9
					c-0.2-0.1-0.5-0.2-0.7-0.4c-1.5,3.3-1.6,6.2-0.1,7.5c2.3,1.8,7.2-0.6,11.1-5.5C229.4,221.6,230.7,216.2,228.4,214.4z"/>
				<path class="st7" d="M286.3,192.8c-1.6-1.4-1.2-4.4,0.6-7.8c-3.5-3.7-7.6-5.4-9.6-3.9c-2.3,1.8-1,7.2,2.8,12.1
					c3.8,4.9,8.8,7.4,11.1,5.6c1.4-1.1,1.5-3.5,0.5-6.3C289.4,193.7,287.5,193.8,286.3,192.8z"/>
				<path class="st7" d="M378.2,245.7c-1.1-2.6-6.6-2.8-12.3-0.4c-0.6,2.2-2,4.8-4.1,7.2c-1.1,1.3-2.3,2.3-3.4,3.2
					c2,1.6,6.7,1.4,11.6-0.7C375.7,252.5,379.4,248.3,378.2,245.7z"/>
				<path class="st7" d="M374.8,214.6c1.8-1.8,0.3-6.4-3.5-10.4c-2,0.2-4.6-0.2-7.2-1.2c-1.4-0.5-2.7-1.1-3.7-1.8
					c-0.7,2.2,1,6.1,4.2,9.4C368.3,214.7,372.9,216.4,374.8,214.6z"/>
				<path class="st7" d="M268.2,267.6c-1.6-1.4-1.2-4.4,0.6-7.8c-3.5-3.7-7.6-5.4-9.6-3.9c-2.3,1.8-1,7.2,2.8,12.1
					c3.8,4.9,8.8,7.4,11.1,5.6c1.4-1.1,1.5-3.5,0.5-6.3C271.4,268.4,269.4,268.6,268.2,267.6z"/>
			</g>
		</g>
		<path class="st8" d="M344.6,122.9c-7.4-11.1-30.3-8.4-34.7,9.3c-3,12.1,1.1,26.2,13.6,32.5c14.6,7.4,36.3,6.5,48.5-2.1
			c10.4-7.4,16.4-21,12.8-32.9c-5.4-17.8-29.5-18.9-35.9-6.8c-2.6-14.7,3.6-30.6,34.1-32.5l3.3-5.2
			C386.3,85.1,337.9,85.1,344.6,122.9z"/>
	</g>
</g>
<g id="Layer_2">
	<g>
		<ellipse class="st2" cx="219.9" cy="488.3" rx="62.4" ry="68.5"/>
		<path class="st3" d="M311.1,424.4c57.1,0,114.3,0,171.4,0c8.4,0,13.8,5.4,13.7,13.8c-0.6,33.1-12.4,61.7-34.9,85.8
			c-22,23.6-49.2,38.4-79.7,47.6c-8.9,2.7-18.2,4.2-27.3,6.5c-1.7,0.4-3.8,1.8-4.6,3.3c-8.4,14.8-12.5,30.8-10.4,47.9
			c4.4,35.6,24,58.9,57.8,70c7.2,2.4,15.3,2.5,23,3.4c3.8,0.5,6.7,2.3,8,5.8c1.2,3.3,0.6,7.2-2.3,9.3c-1.9,1.4-4.4,2-6.7,2.5
			c-2.1,0.4-4.3,0.1-6.4,0.1c-68.8,0-137.6,0-206.3,0c-1.7,0-3.4-0.1-5.1-0.4c-4.6-0.9-7.8-4.8-7.3-9c0.5-4.9,4-8,9-8.2
			c25.3-0.6,46.3-10.4,62.5-29.9c13.6-16.4,19.5-35.6,18.2-56.7c-0.8-12.5-4.4-24.3-10.9-35c-0.9-1.5-3-2.8-4.7-3.1
			c-29.5-5.1-57-15.1-81.6-32.2c-24.4-16.9-42.8-38.6-52.9-66.8c-4.6-12.7-6.7-25.9-7.2-39.4c-0.3-9.9,4.8-15.1,14.7-15.1
			C197.7,424.4,254.4,424.4,311.1,424.4C311.1,424.4,311.1,424.4,311.1,424.4z M177.3,450.8c-9.3,0-17,7.3-16.4,16.6
			c0.3,4.7,2,9.6,4.2,13.9c12.3,24.9,32.2,41.8,57.4,52.6c3.3,1.4,7.9,1.5,11.5,0.6c6.9-1.6,11.5-7.9,11.7-15
			c0.2-7.2-3.1-12.5-9.4-15.8c-4-2.1-8.3-3.9-12.2-6.3c-14.2-8.8-25.3-20.3-31.3-36.3C190.3,454.5,184.3,450.7,177.3,450.8z"/>
		<g>
			<g>
				<path class="st9" d="M107.3,459.6c-33.5,0-62.2-25.1-66.6-58.4c-3.7-27.8,9.9-54.4,34.1-67.8c-5.1-11.4-8.5-23.5-10.2-36
					c-4.6-34.3,4.5-68.4,25.5-95.9c21-27.5,51.5-45.2,85.8-49.8c5.7-0.8,11.6-1.2,17.3-1.2c64.6,0,119.8,48.4,128.3,112.5
					c1.7,12.5,1.5,25.1-0.4,37.4c26.9,6.5,47,28.7,50.7,56.5c4.9,36.8-21,70.7-57.8,75.6c-3,0.4-6,0.6-9,0.6c0,0,0,0,0,0
					c-15.8,0-31.3-5.7-43.3-15.9c-10.8,15.7-27.4,25.9-46.5,28.5c-3,0.4-6,0.6-9,0.6c-15.8,0-31.3-5.7-43.3-15.9
					c-10.8,15.7-27.4,25.9-46.5,28.5C113.3,459.4,110.3,459.6,107.3,459.6z"/>
				<path class="st5" d="M193.1,155.6c61.5,0,115,45.5,123.4,108.1c1.9,13.9,1.4,27.6-1.2,40.7c26.3,4.4,47.8,25.4,51.5,53.2
					c4.6,34.1-19.4,65.4-53.5,70c-2.8,0.4-5.6,0.6-8.3,0.6c-17.1,0-32.9-7-44.4-18.6c-9.3,16.5-25.9,28.6-46.1,31.3
					c-2.8,0.4-5.6,0.6-8.3,0.6c-17.1,0-32.9-7-44.4-18.6c-9.3,16.5-25.9,28.6-46.1,31.3c-2.8,0.4-5.6,0.6-8.3,0.6
					c-30.7,0-57.5-22.8-61.7-54.1c-3.7-27.8,11.5-53.7,35.7-64.9c-5.9-11.9-10-25-11.9-38.9c-9.1-68.2,38.8-130.9,107-140
					C182.1,156,187.6,155.6,193.1,155.6 M193.1,145.6c-6,0-12,0.4-18,1.2c-35.6,4.8-67.3,23.1-89.1,51.7
					c-21.8,28.6-31.2,63.9-26.5,99.6c1.5,11.5,4.5,22.7,8.9,33.3c-9.9,6.4-18.3,15.2-24.1,25.6c-7.7,13.7-10.7,29.3-8.6,44.9
					c2.3,17.5,10.9,33.4,24.2,45c13.2,11.4,30,17.7,47.4,17.7c3.2,0,6.5-0.2,9.7-0.6c11.3-1.5,22.2-5.7,31.5-12.2
					c5.7-4,10.9-8.8,15.3-14.2c12.3,8.9,27.2,13.8,42.4,13.8c3.2,0,6.5-0.2,9.7-0.6c11.3-1.5,22.2-5.7,31.5-12.2
					c5.7-4,10.9-8.8,15.2-14.2c12.3,8.9,27.2,13.8,42.4,13.8c3.2,0,6.5-0.2,9.7-0.6c39.5-5.3,67.4-41.7,62.1-81.2
					c-2.1-15.6-9-29.8-20.1-41.1c-8.3-8.5-18.7-14.8-30-18.4c1.4-11.4,1.3-22.9-0.2-34.4c-4.3-32.5-20.4-62.3-45.1-83.8
					C256.8,157.4,225.5,145.6,193.1,145.6L193.1,145.6z"/>
			</g>
			<path class="st6" d="M69.2,295.6c8.4,13.8,22.9,1.2,23.4-14.3c0.6-17.8,2.1-38.2,11.7-39c10.1-0.8,12.1,9.7,13.2,14.6
				c3.7,15.9,30.3,13.4,27-8.7c-5.1-34.2,29.8-33.7,32.4-6.9c1.8,18.3,7.4,82.3,29,78.7c17-2.8,14.5-33.2,10.5-59.4
				c-4.2-27.7,24.6-30.5,30-16.8c4.2,10.5,8.6,22.5,22.6,20.1c14-2.4,9.2-25.8,6.5-39.8c-3.2-16.5,15.6-22.8,22.2-11.9
				c-25.5-38.6-72.4-62.9-121.3-56.4C108.2,164.9,60.1,227.3,69.2,295.6z"/>
			<g id="NUTS_2_">
				<path class="st7" d="M260.6,191.2c-0.4,1.7-1.1,3.5-2,5.3c-3.1,6.2-8,10-10.9,8.5c-0.1-0.1-0.3-0.2-0.4-0.3
					c-1,4.1-0.5,7.5,1.5,8.5c2.9,1.5,7.7-2.4,10.9-8.5C262.7,198.9,263,193.1,260.6,191.2z"/>
				<path class="st7" d="M167,245.6c-0.4,1.5-1,3.1-1.8,4.7c-2.8,5.5-7.2,9-9.8,7.7c-0.1-0.1-0.3-0.2-0.4-0.2
					c-0.9,3.7-0.5,6.7,1.4,7.7c2.6,1.3,7-2.1,9.8-7.7C168.8,252.5,169.1,247.2,167,245.6z"/>
				<path class="st7" d="M133.7,186.1c1.8-0.1,3.8,0,5.9,0.4c7.1,1.2,12.4,4.9,11.9,8.2c0,0.2-0.1,0.3-0.1,0.5
					c4.4-0.3,7.7-1.8,8.1-4.2c0.6-3.3-4.7-7-11.9-8.2C140.8,181.7,134.8,183.1,133.7,186.1z"/>
				<path class="st7" d="M283.2,266.4c1.6-0.1,3.3,0,5,0.3c6.1,1.1,10.7,4.2,10.2,7.1c0,0.1-0.1,0.3-0.1,0.4
					c3.8-0.2,6.6-1.5,6.9-3.6c0.5-2.9-4.1-6-10.2-7.1C289.3,262.6,284.2,263.8,283.2,266.4z"/>
				<path class="st7" d="M238.3,170.1c-1.8-2.3-7.1-1.1-12,2.6c0,2.3-0.8,5.1-2.2,7.9c-0.8,1.5-1.6,2.8-2.5,3.9
					c2.4,1.1,6.9-0.3,11.1-3.5C237.5,177.4,240.1,172.4,238.3,170.1z"/>
				<path class="st7" d="M117.7,270.5c-1.8-2.3-7.1-1.1-12,2.6c0,2.3-0.8,5.1-2.2,7.9c-0.8,1.5-1.6,2.8-2.5,3.9
					c2.4,1.1,6.9-0.3,11.1-3.5C116.9,277.8,119.5,272.8,117.7,270.5z"/>
				<path class="st7" d="M91.7,221.6c-0.9,2.7,3.2,6.5,9,8.4c1.9-1.3,4.6-2.3,7.8-2.7c1.6-0.2,3.2-0.3,4.7-0.2
					c-0.5-2.5-4.2-5.5-9.2-7.1C98.1,218.1,92.6,218.9,91.7,221.6z"/>
				<path class="st7" d="M258.1,281.6c-0.9,2.7,3.2,6.5,9,8.4c1.9-1.3,4.6-2.3,7.8-2.7c1.6-0.2,3.2-0.3,4.7-0.2
					c-0.5-2.5-4.2-5.5-9.2-7.1C264.5,278.1,259,278.8,258.1,281.6z"/>
				<path class="st7" d="M202.8,223.6c-1.6-0.2-3.2,0.8-4.6,2.6c0.2,0.6,0.3,1.2,0.5,1.9c1.5,7.4-0.1,14-3.6,14.7
					c-0.3,0.1-0.6,0.1-0.9,0c0.4,4.4,2.1,7.5,4.5,7.9c3.5,0.5,7.2-5.1,8.4-12.6C208.3,230.6,206.3,224.1,202.8,223.6z"/>
				<path class="st7" d="M170.5,209.8c0.8,1.1,2.3,1.8,4.2,1.9c0.2-0.4,0.5-0.8,0.8-1.1c3.3-4.3,7.9-6.2,10.4-4.2
					c0.2,0.2,0.4,0.4,0.6,0.6c2.2-2.2,3-4.8,1.8-6.5c-1.8-2.6-7.2-2.5-12.1,0C171.2,203.1,168.7,207.3,170.5,209.8z"/>
				<path class="st7" d="M269.4,234c0.8,1.1,2.3,1.8,4.2,1.9c0.2-0.4,0.5-0.8,0.8-1.1c3.3-4.3,7.9-6.2,10.4-4.2
					c0.2,0.2,0.4,0.4,0.6,0.6c2.2-2.2,3-4.8,1.8-6.5c-1.8-2.6-7.2-2.5-12.1,0C270.2,227.2,267.6,231.4,269.4,234z"/>
				<path class="st7" d="M174.7,170.2c0.1,1.4,1,2.7,2.5,3.8c0.4-0.2,0.8-0.4,1.3-0.5c5.1-1.9,10-1,11,1.9c0.1,0.3,0.1,0.5,0.2,0.8
					c3.1-0.7,5.1-2.4,5-4.6c-0.2-3.1-4.8-6-10.3-6.3C178.9,164.9,174.5,167.1,174.7,170.2z"/>
				<path class="st7" d="M86.2,253.3c-1.2-0.5-2.7-0.1-4.2,1c0,0.5,0,1-0.1,1.6c-0.5,6.2-3.3,11-6.2,10.8c-0.2,0-0.5-0.1-0.7-0.2
					c-0.7,3.5-0.1,6.4,1.7,7.3c2.6,1.2,6.9-2.4,9.5-8C88.8,260.1,88.8,254.5,86.2,253.3z"/>
				<path class="st7" d="M137,218.3c-1.8-0.9-2.3-4-1.4-7.7c-4.3-2.7-8.7-3.4-10.2-1.4c-1.8,2.3,0.8,7.2,5.7,11
					c4.9,3.8,10.3,5,12.1,2.7c1.1-1.4,0.6-3.7-1.1-6.2C140.2,218.3,138.4,219,137,218.3z"/>
				<path class="st7" d="M239.1,247c-1.8-2.3-7.1-1.1-12,2.6c0,2.3-0.8,5.1-2.2,7.9c-0.8,1.5-1.6,2.8-2.5,3.9
					c2.4,1.1,6.9-0.3,11.1-3.5C238.3,254.3,240.8,249.3,239.1,247z"/>
				<path class="st7" d="M228.1,217.8c1.3-2.2-1.3-6.3-6-9.2c-1.9,0.7-4.5,1-7.3,0.7c-1.5-0.2-2.8-0.5-4.1-0.9
					c-0.1,2.3,2.4,5.6,6.4,8.1C221.8,219.4,226.8,220,228.1,217.8z"/>
				<path class="st7" d="M137.7,295.2c-1.8-0.9-2.3-4-1.4-7.7c-4.3-2.7-8.7-3.4-10.2-1.4c-1.8,2.3,0.8,7.2,5.7,11
					c4.9,3.8,10.3,5,12.1,2.7c1.1-1.4,0.6-3.7-1.1-6.2C141,295.2,139.1,295.9,137.7,295.2z"/>
			</g>
		</g>
		<g>
			<g>
				<path class="st9" d="M504.7,456.4c-2.5,0-4.9-0.1-7.4-0.4c-19.1-2.1-36-12-47.2-27.4c-12.2,10.8-28.2,16.9-44.6,16.9
					c-2.5,0-4.9-0.1-7.4-0.4c-19.1-2.1-36-12-47.2-27.4c-12.2,10.8-28.2,16.9-44.6,16.9c-2.5,0-4.9-0.1-7.4-0.4
					c-36.9-4-63.6-37.3-59.6-74.2c3-27.9,22.6-50.5,49.3-57.7c-2.2-12.3-2.7-24.8-1.3-37.4c7.2-65.9,62.5-115.6,128.7-115.6
					c4.7,0,9.5,0.3,14.2,0.8c71,7.8,122.5,71.9,114.8,142.9c-1.4,12.6-4.5,24.7-9.3,36.2c24.5,12.8,38.7,39.1,35.7,67
					C567.8,430.6,539.1,456.4,504.7,456.4C504.7,456.4,504.7,456.4,504.7,456.4z"/>
				<path class="st5" d="M416.2,154.6c4.5,0,9.1,0.2,13.7,0.7c68.4,7.5,117.8,69,110.3,137.4c-1.5,14-5.3,27.1-10.9,39.2
					c24.5,10.5,40.3,36.1,37.3,64c-3.5,31.9-30.5,55.5-61.9,55.5c-2.3,0-4.5-0.1-6.8-0.4c-20.3-2.2-37.2-13.9-46.9-30.2
					c-11.5,12.2-27.7,19.7-45.4,19.7c-2.3,0-4.5-0.1-6.8-0.4c-20.3-2.2-37.2-13.9-46.8-30.2c-11.5,12.2-27.7,19.7-45.4,19.7
					c-2.3,0-4.5-0.1-6.8-0.4c-34.2-3.7-58.9-34.5-55.2-68.7c3-27.9,24-49.4,50.2-54.4c-2.9-13-3.7-26.7-2.2-40.6
					C299.4,201.9,353.4,154.6,416.2,154.6 M416.2,144.6c-33,0-64.7,12.1-89.4,34.2c-24.9,22.2-40.6,52.7-44.2,85.9
					c-1.3,11.5-1,23.1,0.6,34.4c-11.2,3.8-21.4,10.4-29.6,19.1c-10.8,11.5-17.4,25.9-19.1,41.5c-2.1,19.2,3.4,38.1,15.5,53.1
					c12.1,15.1,29.3,24.5,48.5,26.6c2.6,0.3,5.3,0.4,7.9,0.4c15.8,0,31.3-5.3,43.8-14.8c4.5,5.3,9.8,10,15.6,13.8
					c9.5,6.2,20.5,10.2,31.8,11.4c2.6,0.3,5.3,0.4,7.9,0.4c15.8,0,31.3-5.3,43.8-14.8c4.5,5.3,9.8,10,15.6,13.8
					c9.5,6.2,20.5,10.2,31.8,11.4c2.6,0.3,5.3,0.4,7.9,0.4c17.7,0,34.8-6.5,48-18.3c13.4-11.9,21.8-28.3,23.8-46.1
					c1.7-15.7-1.6-31.1-9.7-44.7c-6.1-10.2-14.6-18.9-24.7-25c4.1-10.7,6.8-21.9,8-33.5c3.9-35.7-6.3-70.9-28.9-98.9
					c-22.5-28-54.6-45.6-90.3-49.5C426.1,144.8,421.1,144.6,416.2,144.6L416.2,144.6z"/>
			</g>
			<path class="st6" d="M292.5,264.5c4.8,15.4,21.9,6.6,26.1-8.3c4.8-17.2,11.2-36.6,20.7-35.1c10,1.6,9.4,12.3,9.3,17.4
				c-0.3,16.4,26.2,20.3,28.3-2c3.2-34.4,37-25.6,33.1,1.1c-2.7,18.2-12.5,81.7,9.3,83.4c17.2,1.4,22-28.8,24.4-55.2
				c2.5-27.9,31.2-23.7,33.2-9.2c1.5,11.2,3,23.9,17.2,24.9c14.2,1,15.1-22.9,15.8-37.1c0.8-16.8,20.6-18.4,24.4-6.2
				c-15.5-43.6-55.2-78.4-104.3-83.8C361.6,146.9,300,196,292.5,264.5z"/>
			<g id="NUTS_1_">
				<path class="st7" d="M503.3,208.9c-0.8,1.5-1.9,3.1-3.2,4.6c-4.5,5.2-10.2,7.8-12.6,5.7c-0.1-0.1-0.2-0.2-0.3-0.4
					c-2,3.7-2.3,7.2-0.6,8.7c2.4,2.1,8.1-0.4,12.6-5.7C503.5,216.9,505.2,211.3,503.3,208.9z"/>
				<path class="st7" d="M399.4,239.3c-0.7,1.4-1.7,2.8-2.9,4.2c-4.1,4.7-9.1,7-11.3,5.1c-0.1-0.1-0.2-0.2-0.3-0.3
					c-1.8,3.4-2.1,6.4-0.5,7.8c2.2,1.9,7.3-0.4,11.3-5.1C399.5,246.5,401.1,241.4,399.4,239.3z"/>
				<path class="st7" d="M381.3,173.6c1.8,0.3,3.7,0.9,5.6,1.7c6.6,2.9,10.9,7.7,9.5,10.8c-0.1,0.2-0.2,0.3-0.3,0.5
					c4.3,0.8,7.9,0.1,8.8-2.1c1.4-3.1-2.9-7.9-9.5-10.8C389.2,171,383.1,171,381.3,173.6z"/>
				<path class="st7" d="M507.3,287.3c1.5,0.3,3.2,0.8,4.8,1.5c5.7,2.5,9.4,6.7,8.2,9.3c-0.1,0.1-0.1,0.3-0.2,0.4
					c3.7,0.7,6.8,0.1,7.6-1.8c1.2-2.7-2.5-6.8-8.2-9.3C514.1,285.1,508.8,285.1,507.3,287.3z"/>
				<path class="st7" d="M486.7,183.1c-1.2-2.6-6.7-2.8-12.3-0.3c-0.6,2.2-2,4.8-4.1,7.2c-1.1,1.3-2.2,2.3-3.4,3.2
					c2,1.6,6.8,1.4,11.6-0.7C484.2,190,487.9,185.8,486.7,183.1z"/>
				<path class="st7" d="M345.6,251.7c-1.2-2.6-6.7-2.8-12.3-0.3c-0.6,2.2-2,4.8-4.1,7.2c-1.1,1.3-2.2,2.3-3.4,3.2
					c2,1.6,6.8,1.4,11.6-0.7C343.1,258.6,346.7,254.4,345.6,251.7z"/>
				<path class="st7" d="M332,198c-1.5,2.5,1.5,7,6.8,10.3c2.1-0.8,5.1-1.1,8.2-0.8c1.7,0.2,3.2,0.5,4.6,0.9
					c0.1-2.6-2.7-6.3-7.2-9.1C339.1,196.2,333.6,195.6,332,198z"/>
				<path class="st7" d="M479.3,296.1c-1.5,2.5,1.5,7,6.8,10.3c2.1-0.8,5.1-1.1,8.2-0.8c1.7,0.2,3.2,0.5,4.6,0.9
					c0.1-2.6-2.7-6.3-7.2-9.1C486.3,294.2,480.8,293.6,479.3,296.1z"/>
				<path class="st7" d="M439.5,226.5c-1.5-0.6-3.3,0-5.1,1.4c0,0.6,0,1.3,0,1.9c-0.3,7.6-3.4,13.6-7,13.4c-0.3,0-0.6-0.1-0.9-0.2
					c-0.6,4.3,0.2,7.8,2.5,8.7c3.3,1.3,8.3-3.2,11.1-10.2C443.1,234.6,442.8,227.9,439.5,226.5z"/>
				<path class="st7" d="M411.3,205.4c0.5,1.3,1.8,2.3,3.6,2.8c0.3-0.3,0.7-0.6,1-0.9c4.2-3.4,9.2-4.1,11.1-1.6
					c0.2,0.2,0.3,0.5,0.4,0.7c2.7-1.6,4.1-3.9,3.3-5.9c-1.1-2.9-6.4-4.2-11.7-2.8C413.7,199.1,410.2,202.5,411.3,205.4z"/>
				<path class="st7" d="M501.7,252.5c0.5,1.3,1.8,2.3,3.6,2.8c0.3-0.3,0.7-0.6,1-0.9c4.2-3.4,9.2-4.1,11.1-1.6
					c0.2,0.2,0.3,0.5,0.4,0.7c2.7-1.6,4.1-3.9,3.3-5.9c-1.1-2.9-6.4-4.2-11.7-2.8C504,246.2,500.5,249.6,501.7,252.5z"/>
				<path class="st7" d="M424.9,168c-0.3,1.4,0.3,2.9,1.6,4.3c0.4-0.1,0.9-0.2,1.4-0.2c5.4-0.6,10,1.4,10.3,4.5c0,0.3,0,0.5,0,0.8
					c3.1,0,5.5-1.2,5.9-3.3c0.6-3.1-3.2-6.9-8.5-8.6C430.2,163.8,425.5,164.9,424.9,168z"/>
				<path class="st7" d="M319.1,227.5c-1-0.8-2.6-0.8-4.3,0c-0.1,0.5-0.3,1-0.5,1.5c-2,5.9-5.8,9.9-8.6,9c-0.2-0.1-0.5-0.2-0.7-0.4
					c-1.5,3.3-1.6,6.2-0.1,7.5c2.3,1.8,7.2-0.7,11.1-5.5C320,234.7,321.3,229.3,319.1,227.5z"/>
				<path class="st7" d="M376.8,205.6c-1.6-1.3-1.2-4.4,0.5-7.8c-3.6-3.7-7.6-5.4-9.6-3.8c-2.3,1.8-1,7.2,2.9,12.1s8.8,7.3,11.1,5.5
					c1.4-1.1,1.4-3.5,0.4-6.3C380,206.5,378,206.6,376.8,205.6z"/>
				<path class="st7" d="M469,258c-1.2-2.6-6.7-2.8-12.3-0.3c-0.6,2.2-2,4.8-4.1,7.2c-1.1,1.3-2.2,2.3-3.4,3.2
					c2,1.6,6.8,1.4,11.6-0.7C466.5,264.8,470.2,260.6,469,258z"/>
				<path class="st7" d="M465.4,227c1.8-1.8,0.2-6.4-3.6-10.3c-2,0.2-4.6-0.1-7.3-1.1c-1.4-0.5-2.7-1.1-3.8-1.8
					c-0.7,2.2,1,6,4.3,9.4C458.9,227,463.6,228.8,465.4,227z"/>
				<path class="st7" d="M359.1,280.5c-1.6-1.3-1.2-4.4,0.5-7.8c-3.6-3.7-7.6-5.4-9.6-3.8c-2.3,1.8-1,7.2,2.9,12.1
					c3.9,4.9,8.8,7.3,11.1,5.5c1.4-1.1,1.4-3.5,0.4-6.3C362.3,281.3,360.3,281.5,359.1,280.5z"/>
			</g>
		</g>
		<path class="st8" d="M352.5,141c-8.6-10.2-31-4.9-33.4,13.1c-1.6,12.4,4,25.9,17.2,30.7c15.3,5.6,36.8,2.4,47.9-7.6
			c9.5-8.5,13.9-22.8,8.9-34.2c-7.4-17-31.5-15.4-36.5-2.6c-4.3-14.3,0.1-30.8,30.2-36.1l2.7-5.6C389.6,98.7,341.5,104.3,352.5,141z
			"/>
	</g>
	<g>
		<ellipse class="st2" cx="219.9" cy="487.8" rx="62.4" ry="68.5"/>
		<path class="st3" d="M311.1,424.9c57.1,0,114.3,0,171.4,0c8.4,0,13.8,5.4,13.7,13.8c-0.6,33.1-12.4,61.7-34.9,85.8
			c-22,23.6-49.2,38.4-79.7,47.6c-8.9,2.7-18.2,4.2-27.3,6.5c-1.7,0.4-3.8,1.8-4.6,3.3c-8.4,14.8-12.5,30.8-10.4,47.9
			c4.4,35.6,24,58.9,57.8,70c7.2,2.4,15.3,2.5,23,3.4c3.8,0.5,6.7,2.3,8,5.8c1.2,3.3,0.6,7.2-2.3,9.3c-1.9,1.4-4.4,2-6.7,2.5
			c-2.1,0.4-4.3,0.1-6.4,0.1c-68.8,0-137.6,0-206.3,0c-1.7,0-3.4-0.1-5.1-0.4c-4.6-0.9-7.8-4.8-7.3-9c0.5-4.9,4-8,9-8.2
			c25.3-0.6,46.3-10.4,62.5-29.9c13.6-16.4,19.5-35.6,18.2-56.7c-0.8-12.5-4.4-24.3-10.9-35c-0.9-1.5-3-2.8-4.7-3.1
			c-29.5-5.1-57-15.1-81.6-32.2c-24.4-16.9-42.8-38.6-52.9-66.8c-4.6-12.7-6.7-25.9-7.2-39.4c-0.3-9.9,4.8-15.1,14.7-15.1
			C197.7,424.9,254.4,424.9,311.1,424.9C311.1,424.9,311.1,424.9,311.1,424.9z M177.3,451.3c-9.3,0-17,7.3-16.4,16.6
			c0.3,4.7,2,9.6,4.2,13.9c12.3,24.9,32.2,41.8,57.4,52.6c3.3,1.4,7.9,1.5,11.5,0.6c6.9-1.6,11.5-7.9,11.7-15
			c0.2-7.2-3.1-12.5-9.4-15.8c-4-2.1-8.3-3.9-12.2-6.3c-14.2-8.8-25.3-20.3-31.3-36.3C190.3,455,184.3,451.2,177.3,451.3z"/>
		<g>
			<g>
				<path class="st4" d="M107.3,459.1c-33.5,0-62.2-25.1-66.6-58.4c-3.7-27.8,9.9-54.4,34.1-67.8c-5.1-11.4-8.5-23.5-10.2-36
					c-4.6-34.3,4.5-68.4,25.5-95.9c21-27.5,51.5-45.2,85.8-49.8c5.7-0.8,11.6-1.2,17.3-1.2c64.6,0,119.8,48.4,128.3,112.5
					c1.7,12.5,1.5,25.1-0.4,37.4c26.9,6.5,47,28.7,50.7,56.5c4.9,36.8-21,70.7-57.8,75.6c-3,0.4-6,0.6-9,0.6c0,0,0,0,0,0
					c-15.8,0-31.3-5.7-43.3-15.9c-10.8,15.7-27.4,25.9-46.5,28.5c-3,0.4-6,0.6-9,0.6c-15.8,0-31.3-5.7-43.3-15.9
					c-10.8,15.7-27.4,25.9-46.5,28.5C113.3,458.9,110.3,459.1,107.3,459.1z"/>
				<path class="st5" d="M193.1,155.1c61.5,0,115,45.5,123.4,108.1c1.9,13.9,1.4,27.6-1.2,40.7c26.3,4.4,47.8,25.4,51.5,53.2
					c4.6,34.1-19.4,65.4-53.5,70c-2.8,0.4-5.6,0.6-8.3,0.6c-17.1,0-32.9-7-44.4-18.6c-9.3,16.5-25.9,28.6-46.1,31.3
					c-2.8,0.4-5.6,0.6-8.3,0.6c-17.1,0-32.9-7-44.4-18.6c-9.3,16.5-25.9,28.6-46.1,31.3c-2.8,0.4-5.6,0.6-8.3,0.6
					c-30.7,0-57.5-22.8-61.7-54.1c-3.7-27.8,11.5-53.7,35.7-64.9c-5.9-11.9-10-25-11.9-38.9c-9.1-68.2,38.8-130.9,107-140
					C182.1,155.5,187.6,155.1,193.1,155.1 M193.1,145.1c-6,0-12,0.4-18,1.2c-35.6,4.8-67.3,23.1-89.1,51.7
					c-21.8,28.6-31.2,63.9-26.5,99.6c1.5,11.5,4.5,22.7,8.9,33.3c-9.9,6.4-18.3,15.2-24.1,25.6c-7.7,13.7-10.7,29.3-8.6,44.9
					c2.3,17.5,10.9,33.4,24.2,45c13.2,11.4,30,17.7,47.4,17.7c3.2,0,6.5-0.2,9.7-0.6c11.3-1.5,22.2-5.7,31.5-12.2
					c5.7-4,10.9-8.8,15.3-14.2c12.3,8.9,27.2,13.8,42.4,13.8c3.2,0,6.5-0.2,9.7-0.6c11.3-1.5,22.2-5.7,31.5-12.2
					c5.7-4,10.9-8.8,15.2-14.2c12.3,8.9,27.2,13.8,42.4,13.8c3.2,0,6.5-0.2,9.7-0.6c39.5-5.3,67.4-41.7,62.1-81.2
					c-2.1-15.6-9-29.8-20.1-41.1c-8.3-8.5-18.7-14.8-30-18.4c1.4-11.4,1.3-22.9-0.2-34.4c-4.3-32.5-20.4-62.3-45.1-83.8
					C256.8,156.9,225.5,145.1,193.1,145.1L193.1,145.1z"/>
			</g>
			<path class="st6" d="M69.2,295.1c8.4,13.8,22.9,1.2,23.4-14.3c0.6-17.8,2.1-38.2,11.7-39c10.1-0.8,12.1,9.7,13.2,14.6
				c3.7,15.9,30.3,13.4,27-8.7c-5.1-34.2,29.8-33.7,32.4-6.9c1.8,18.3,7.4,82.3,29,78.7c17-2.8,14.5-33.2,10.5-59.4
				c-4.2-27.7,24.6-30.5,30-16.8c4.2,10.5,8.6,22.5,22.6,20.1c14-2.4,9.2-25.8,6.5-39.8c-3.2-16.5,15.6-22.8,22.2-11.9
				c-25.5-38.6-72.4-62.9-121.3-56.4C108.2,164.4,60.1,226.8,69.2,295.1z"/>
			<g id="NUTS_7_">
				<path class="st7" d="M260.6,190.7c-0.4,1.7-1.1,3.5-2,5.3c-3.1,6.2-8,10-10.9,8.5c-0.1-0.1-0.3-0.2-0.4-0.3
					c-1,4.1-0.5,7.5,1.5,8.5c2.9,1.5,7.7-2.4,10.9-8.5C262.7,198.4,263,192.6,260.6,190.7z"/>
				<path class="st7" d="M167,245.1c-0.4,1.5-1,3.1-1.8,4.7c-2.8,5.5-7.2,9-9.8,7.7c-0.1-0.1-0.3-0.2-0.4-0.2
					c-0.9,3.7-0.5,6.7,1.4,7.7c2.6,1.3,7-2.1,9.8-7.7C168.8,252,169.1,246.7,167,245.1z"/>
				<path class="st7" d="M133.7,185.6c1.8-0.1,3.8,0,5.9,0.4c7.1,1.2,12.4,4.9,11.9,8.2c0,0.2-0.1,0.3-0.1,0.5
					c4.4-0.3,7.7-1.8,8.1-4.2c0.6-3.3-4.7-7-11.9-8.2C140.8,181.2,134.8,182.6,133.7,185.6z"/>
				<path class="st7" d="M283.2,265.9c1.6-0.1,3.3,0,5,0.3c6.1,1.1,10.7,4.2,10.2,7.1c0,0.1-0.1,0.3-0.1,0.4
					c3.8-0.2,6.6-1.5,6.9-3.6c0.5-2.9-4.1-6-10.2-7.1C289.3,262.1,284.2,263.3,283.2,265.9z"/>
				<path class="st7" d="M238.3,169.6c-1.8-2.3-7.1-1.1-12,2.6c0,2.3-0.8,5.1-2.2,7.9c-0.8,1.5-1.6,2.8-2.5,3.9
					c2.4,1.1,6.9-0.3,11.1-3.5C237.5,176.9,240.1,171.9,238.3,169.6z"/>
				<path class="st7" d="M117.7,270c-1.8-2.3-7.1-1.1-12,2.6c0,2.3-0.8,5.1-2.2,7.9c-0.8,1.5-1.6,2.8-2.5,3.9
					c2.4,1.1,6.9-0.3,11.1-3.5C116.9,277.3,119.5,272.3,117.7,270z"/>
				<path class="st7" d="M91.7,221.1c-0.9,2.7,3.2,6.5,9,8.4c1.9-1.3,4.6-2.3,7.8-2.7c1.6-0.2,3.2-0.3,4.7-0.2
					c-0.5-2.5-4.2-5.5-9.2-7.1C98.1,217.6,92.6,218.4,91.7,221.1z"/>
				<path class="st7" d="M258.1,281.1c-0.9,2.7,3.2,6.5,9,8.4c1.9-1.3,4.6-2.3,7.8-2.7c1.6-0.2,3.2-0.3,4.7-0.2
					c-0.5-2.5-4.2-5.5-9.2-7.1C264.5,277.6,259,278.3,258.1,281.1z"/>
				<path class="st7" d="M202.8,223.1c-1.6-0.2-3.2,0.8-4.6,2.6c0.2,0.6,0.3,1.2,0.5,1.9c1.5,7.4-0.1,14-3.6,14.7
					c-0.3,0.1-0.6,0.1-0.9,0c0.4,4.4,2.1,7.5,4.5,7.9c3.5,0.5,7.2-5.1,8.4-12.6C208.3,230.1,206.3,223.6,202.8,223.1z"/>
				<path class="st7" d="M170.5,209.3c0.8,1.1,2.3,1.8,4.2,1.9c0.2-0.4,0.5-0.8,0.8-1.1c3.3-4.3,7.9-6.2,10.4-4.2
					c0.2,0.2,0.4,0.4,0.6,0.6c2.2-2.2,3-4.8,1.8-6.5c-1.8-2.6-7.2-2.5-12.1,0C171.2,202.6,168.7,206.8,170.5,209.3z"/>
				<path class="st7" d="M269.4,233.5c0.8,1.1,2.3,1.8,4.2,1.9c0.2-0.4,0.5-0.8,0.8-1.1c3.3-4.3,7.9-6.2,10.4-4.2
					c0.2,0.2,0.4,0.4,0.6,0.6c2.2-2.2,3-4.8,1.8-6.5c-1.8-2.6-7.2-2.5-12.1,0C270.2,226.7,267.6,230.9,269.4,233.5z"/>
				<path class="st7" d="M174.7,169.7c0.1,1.4,1,2.7,2.5,3.8c0.4-0.2,0.8-0.4,1.3-0.5c5.1-1.9,10-1,11,1.9c0.1,0.3,0.1,0.5,0.2,0.8
					c3.1-0.7,5.1-2.4,5-4.6c-0.2-3.1-4.8-6-10.3-6.3C178.9,164.4,174.5,166.6,174.7,169.7z"/>
				<path class="st7" d="M86.2,252.8c-1.2-0.5-2.7-0.1-4.2,1c0,0.5,0,1-0.1,1.6c-0.5,6.2-3.3,11-6.2,10.8c-0.2,0-0.5-0.1-0.7-0.2
					c-0.7,3.5-0.1,6.4,1.7,7.3c2.6,1.2,6.9-2.4,9.5-8C88.8,259.6,88.8,254,86.2,252.8z"/>
				<path class="st7" d="M137,217.8c-1.8-0.9-2.3-4-1.4-7.7c-4.3-2.7-8.7-3.4-10.2-1.4c-1.8,2.3,0.8,7.2,5.7,11
					c4.9,3.8,10.3,5,12.1,2.7c1.1-1.4,0.6-3.7-1.1-6.2C140.2,217.8,138.4,218.5,137,217.8z"/>
				<path class="st7" d="M239.1,246.5c-1.8-2.3-7.1-1.1-12,2.6c0,2.3-0.8,5.1-2.2,7.9c-0.8,1.5-1.6,2.8-2.5,3.9
					c2.4,1.1,6.9-0.3,11.1-3.5C238.3,253.8,240.8,248.8,239.1,246.5z"/>
				<path class="st7" d="M228.1,217.3c1.3-2.2-1.3-6.3-6-9.2c-1.9,0.7-4.5,1-7.3,0.7c-1.5-0.2-2.8-0.5-4.1-0.9
					c-0.1,2.3,2.4,5.6,6.4,8.1C221.8,218.9,226.8,219.5,228.1,217.3z"/>
				<path class="st7" d="M137.7,294.7c-1.8-0.9-2.3-4-1.4-7.7c-4.3-2.7-8.7-3.4-10.2-1.4c-1.8,2.3,0.8,7.2,5.7,11
					c4.9,3.8,10.3,5,12.1,2.7c1.1-1.4,0.6-3.7-1.1-6.2C141,294.7,139.1,295.4,137.7,294.7z"/>
			</g>
		</g>
		<g>
			<g>
				<path class="st4" d="M504.7,455.9c-2.5,0-4.9-0.1-7.4-0.4c-19.1-2.1-36-12-47.2-27.4c-12.2,10.8-28.2,16.9-44.6,16.9
					c-2.5,0-4.9-0.1-7.4-0.4c-19.1-2.1-36-12-47.2-27.4c-12.2,10.8-28.2,16.9-44.6,16.9c-2.5,0-4.9-0.1-7.4-0.4
					c-36.9-4-63.6-37.3-59.6-74.2c3-27.9,22.6-50.5,49.3-57.7c-2.2-12.3-2.7-24.8-1.3-37.4c7.2-65.9,62.5-115.6,128.7-115.6
					c4.7,0,9.5,0.3,14.2,0.8c71,7.8,122.5,71.9,114.8,142.9c-1.4,12.6-4.5,24.7-9.3,36.2c24.5,12.8,38.7,39.1,35.7,67
					C567.8,430.1,539.1,455.9,504.7,455.9C504.7,455.9,504.7,455.9,504.7,455.9z"/>
				<path class="st5" d="M416.2,154.1c4.5,0,9.1,0.2,13.7,0.7c68.4,7.5,117.8,69,110.3,137.4c-1.5,14-5.3,27.1-10.9,39.2
					c24.5,10.5,40.3,36.1,37.3,64c-3.5,31.9-30.5,55.5-61.9,55.5c-2.3,0-4.5-0.1-6.8-0.4c-20.3-2.2-37.2-13.9-46.9-30.2
					c-11.5,12.2-27.7,19.7-45.4,19.7c-2.3,0-4.5-0.1-6.8-0.4c-20.3-2.2-37.2-13.9-46.8-30.2c-11.5,12.2-27.7,19.7-45.4,19.7
					c-2.3,0-4.5-0.1-6.8-0.4c-34.2-3.7-58.9-34.5-55.2-68.7c3-27.9,24-49.4,50.2-54.4c-2.9-13-3.7-26.7-2.2-40.6
					C299.4,201.4,353.4,154.1,416.2,154.1 M416.2,144.1c-33,0-64.7,12.1-89.4,34.2c-24.9,22.2-40.6,52.7-44.2,85.9
					c-1.3,11.5-1,23.1,0.6,34.4c-11.2,3.8-21.4,10.4-29.6,19.1c-10.8,11.5-17.4,25.9-19.1,41.5c-2.1,19.2,3.4,38.1,15.5,53.1
					c12.1,15.1,29.3,24.5,48.5,26.6c2.6,0.3,5.3,0.4,7.9,0.4c15.8,0,31.3-5.3,43.8-14.8c4.5,5.3,9.8,10,15.6,13.8
					c9.5,6.2,20.5,10.2,31.8,11.4c2.6,0.3,5.3,0.4,7.9,0.4c15.8,0,31.3-5.3,43.8-14.8c4.5,5.3,9.8,10,15.6,13.8
					c9.5,6.2,20.5,10.2,31.8,11.4c2.6,0.3,5.3,0.4,7.9,0.4c17.7,0,34.8-6.5,48-18.3c13.4-11.9,21.8-28.3,23.8-46.1
					c1.7-15.7-1.6-31.1-9.7-44.7c-6.1-10.2-14.6-18.9-24.7-25c4.1-10.7,6.8-21.9,8-33.5c3.9-35.7-6.3-70.9-28.9-98.9
					c-22.5-28-54.6-45.6-90.3-49.5C426.1,144.3,421.1,144.1,416.2,144.1L416.2,144.1z"/>
			</g>
			<path class="st6" d="M292.5,264c4.8,15.4,21.9,6.6,26.1-8.3c4.8-17.2,11.2-36.6,20.7-35.1c10,1.6,9.4,12.3,9.3,17.4
				c-0.3,16.4,26.2,20.3,28.3-2c3.2-34.4,37-25.6,33.1,1.1c-2.7,18.2-12.5,81.7,9.3,83.4c17.2,1.4,22-28.8,24.4-55.2
				c2.5-27.9,31.2-23.7,33.2-9.2c1.5,11.2,3,23.9,17.2,24.9c14.2,1,15.1-22.9,15.8-37.1c0.8-16.8,20.6-18.4,24.4-6.2
				C518.7,194,479,159.2,430,153.8C361.6,146.4,300,195.5,292.5,264z"/>
			<g id="NUTS_6_">
				<path class="st7" d="M503.3,208.4c-0.8,1.5-1.9,3.1-3.2,4.6c-4.5,5.2-10.2,7.8-12.6,5.7c-0.1-0.1-0.2-0.2-0.3-0.4
					c-2,3.7-2.3,7.2-0.6,8.7c2.4,2.1,8.1-0.4,12.6-5.7C503.5,216.4,505.2,210.8,503.3,208.4z"/>
				<path class="st7" d="M399.4,238.8c-0.7,1.4-1.7,2.8-2.9,4.2c-4.1,4.7-9.1,7-11.3,5.1c-0.1-0.1-0.2-0.2-0.3-0.3
					c-1.8,3.4-2.1,6.4-0.5,7.8c2.2,1.9,7.3-0.4,11.3-5.1C399.5,246,401.1,240.9,399.4,238.8z"/>
				<path class="st7" d="M381.3,173.1c1.8,0.3,3.7,0.9,5.6,1.7c6.6,2.9,10.9,7.7,9.5,10.8c-0.1,0.2-0.2,0.3-0.3,0.5
					c4.3,0.8,7.9,0.1,8.8-2.1c1.4-3.1-2.9-7.9-9.5-10.8C389.2,170.5,383.1,170.5,381.3,173.1z"/>
				<path class="st7" d="M507.3,286.8c1.5,0.3,3.2,0.8,4.8,1.5c5.7,2.5,9.4,6.7,8.2,9.3c-0.1,0.1-0.1,0.3-0.2,0.4
					c3.7,0.7,6.8,0.1,7.6-1.8c1.2-2.7-2.5-6.8-8.2-9.3C514.1,284.6,508.8,284.6,507.3,286.8z"/>
				<path class="st7" d="M486.7,182.6c-1.2-2.6-6.7-2.8-12.3-0.3c-0.6,2.2-2,4.8-4.1,7.2c-1.1,1.3-2.2,2.3-3.4,3.2
					c2,1.6,6.8,1.4,11.6-0.7C484.2,189.5,487.9,185.3,486.7,182.6z"/>
				<path class="st7" d="M345.6,251.2c-1.2-2.6-6.7-2.8-12.3-0.3c-0.6,2.2-2,4.8-4.1,7.2c-1.1,1.3-2.2,2.3-3.4,3.2
					c2,1.6,6.8,1.4,11.6-0.7C343.1,258.1,346.7,253.9,345.6,251.2z"/>
				<path class="st7" d="M332,197.5c-1.5,2.5,1.5,7,6.8,10.3c2.1-0.8,5.1-1.1,8.2-0.8c1.7,0.2,3.2,0.5,4.6,0.9
					c0.1-2.6-2.7-6.3-7.2-9.1C339.1,195.7,333.6,195.1,332,197.5z"/>
				<path class="st7" d="M479.3,295.6c-1.5,2.5,1.5,7,6.8,10.3c2.1-0.8,5.1-1.1,8.2-0.8c1.7,0.2,3.2,0.5,4.6,0.9
					c0.1-2.6-2.7-6.3-7.2-9.1C486.3,293.7,480.8,293.1,479.3,295.6z"/>
				<path class="st7" d="M439.5,226c-1.5-0.6-3.3,0-5.1,1.4c0,0.6,0,1.3,0,1.9c-0.3,7.6-3.4,13.6-7,13.4c-0.3,0-0.6-0.1-0.9-0.2
					c-0.6,4.3,0.2,7.8,2.5,8.7c3.3,1.3,8.3-3.2,11.1-10.2C443.1,234.1,442.8,227.4,439.5,226z"/>
				<path class="st7" d="M411.3,204.9c0.5,1.3,1.8,2.3,3.6,2.8c0.3-0.3,0.7-0.6,1-0.9c4.2-3.4,9.2-4.1,11.1-1.6
					c0.2,0.2,0.3,0.5,0.4,0.7c2.7-1.6,4.1-3.9,3.3-5.9c-1.1-2.9-6.4-4.2-11.7-2.8C413.7,198.6,410.2,202,411.3,204.9z"/>
				<path class="st7" d="M501.7,252c0.5,1.3,1.8,2.3,3.6,2.8c0.3-0.3,0.7-0.6,1-0.9c4.2-3.4,9.2-4.1,11.1-1.6
					c0.2,0.2,0.3,0.5,0.4,0.7c2.7-1.6,4.1-3.9,3.3-5.9c-1.1-2.9-6.4-4.2-11.7-2.8C504,245.7,500.5,249.1,501.7,252z"/>
				<path class="st7" d="M424.9,167.5c-0.3,1.4,0.3,2.9,1.6,4.3c0.4-0.1,0.9-0.2,1.4-0.2c5.4-0.6,10,1.4,10.3,4.5c0,0.3,0,0.5,0,0.8
					c3.1,0,5.5-1.2,5.9-3.3c0.6-3.1-3.2-6.9-8.5-8.6C430.2,163.3,425.5,164.4,424.9,167.5z"/>
				<path class="st7" d="M319.1,227c-1-0.8-2.6-0.8-4.3,0c-0.1,0.5-0.3,1-0.5,1.5c-2,5.9-5.8,9.9-8.6,9c-0.2-0.1-0.5-0.2-0.7-0.4
					c-1.5,3.3-1.6,6.2-0.1,7.5c2.3,1.8,7.2-0.7,11.1-5.5C320,234.2,321.3,228.8,319.1,227z"/>
				<path class="st7" d="M376.8,205.1c-1.6-1.3-1.2-4.4,0.5-7.8c-3.6-3.7-7.6-5.4-9.6-3.8c-2.3,1.8-1,7.2,2.9,12.1s8.8,7.3,11.1,5.5
					c1.4-1.1,1.4-3.5,0.4-6.3C380,206,378,206.1,376.8,205.1z"/>
				<path class="st7" d="M469,257.5c-1.2-2.6-6.7-2.8-12.3-0.3c-0.6,2.2-2,4.8-4.1,7.2c-1.1,1.3-2.2,2.3-3.4,3.2
					c2,1.6,6.8,1.4,11.6-0.7C466.5,264.3,470.2,260.1,469,257.5z"/>
				<path class="st7" d="M465.4,226.5c1.8-1.8,0.2-6.4-3.6-10.3c-2,0.2-4.6-0.1-7.3-1.1c-1.4-0.5-2.7-1.1-3.8-1.8
					c-0.7,2.2,1,6,4.3,9.4C458.9,226.5,463.6,228.3,465.4,226.5z"/>
				<path class="st7" d="M359.1,280c-1.6-1.3-1.2-4.4,0.5-7.8c-3.6-3.7-7.6-5.4-9.6-3.8c-2.3,1.8-1,7.2,2.9,12.1
					c3.9,4.9,8.8,7.3,11.1,5.5c1.4-1.1,1.4-3.5,0.4-6.3C362.3,280.8,360.3,281,359.1,280z"/>
			</g>
		</g>
		<path class="st8" d="M352.5,140.5c-8.6-10.2-31-4.9-33.4,13.1c-1.6,12.4,4,25.9,17.2,30.7c15.3,5.6,36.8,2.4,47.9-7.6
			c9.5-8.5,13.9-22.8,8.9-34.2c-7.4-17-31.5-15.4-36.5-2.6c-4.3-14.3,0.1-30.8,30.2-36.1l2.7-5.6
			C389.6,98.2,341.5,103.8,352.5,140.5z"/>
	</g>
	<g>
		<ellipse class="st2" cx="219.9" cy="487.8" rx="62.4" ry="68.5"/>
		<path class="st3" d="M311.1,424.9c57.1,0,114.3,0,171.4,0c8.4,0,13.8,5.4,13.7,13.8c-0.6,33.1-12.4,61.7-34.9,85.8
			c-22,23.6-49.2,38.4-79.7,47.6c-8.9,2.7-18.2,4.2-27.3,6.5c-1.7,0.4-3.8,1.8-4.6,3.3c-8.4,14.8-12.5,30.8-10.4,47.9
			c4.4,35.6,24,58.9,57.8,70c7.2,2.4,15.3,2.5,23,3.4c3.8,0.5,6.7,2.3,8,5.8c1.2,3.3,0.6,7.2-2.3,9.3c-1.9,1.4-4.4,2-6.7,2.5
			c-2.1,0.4-4.3,0.1-6.4,0.1c-68.8,0-137.6,0-206.3,0c-1.7,0-3.4-0.1-5.1-0.4c-4.6-0.9-7.8-4.8-7.3-9c0.5-4.9,4-8,9-8.2
			c25.3-0.6,46.3-10.4,62.5-29.9c13.6-16.4,19.5-35.6,18.2-56.7c-0.8-12.5-4.4-24.3-10.9-35c-0.9-1.5-3-2.8-4.7-3.1
			c-29.5-5.1-57-15.1-81.6-32.2c-24.4-16.9-42.8-38.6-52.9-66.8c-4.6-12.7-6.7-25.9-7.2-39.4c-0.3-9.9,4.8-15.1,14.7-15.1
			C197.7,424.9,254.4,424.9,311.1,424.9C311.1,424.9,311.1,424.9,311.1,424.9z M177.3,451.3c-9.3,0-17,7.3-16.4,16.6
			c0.3,4.7,2,9.6,4.2,13.9c12.3,24.9,32.2,41.8,57.4,52.6c3.3,1.4,7.9,1.5,11.5,0.6c6.9-1.6,11.5-7.9,11.7-15
			c0.2-7.2-3.1-12.5-9.4-15.8c-4-2.1-8.3-3.9-12.2-6.3c-14.2-8.8-25.3-20.3-31.3-36.3C190.3,455,184.3,451.2,177.3,451.3z"/>
		<g>
			<g>
				<path class="st10" d="M107.3,459.1c-33.5,0-62.2-25.1-66.6-58.4c-3.7-27.8,9.9-54.4,34.1-67.8c-5.1-11.4-8.5-23.5-10.2-36
					c-4.6-34.3,4.5-68.4,25.5-95.9c21-27.5,51.5-45.2,85.8-49.8c5.7-0.8,11.6-1.2,17.3-1.2c64.6,0,119.8,48.4,128.3,112.5
					c1.7,12.5,1.5,25.1-0.4,37.4c26.9,6.5,47,28.7,50.7,56.5c4.9,36.8-21,70.7-57.8,75.6c-3,0.4-6,0.6-9,0.6c0,0,0,0,0,0
					c-15.8,0-31.3-5.7-43.3-15.9c-10.8,15.7-27.4,25.9-46.5,28.5c-3,0.4-6,0.6-9,0.6c-15.8,0-31.3-5.7-43.3-15.9
					c-10.8,15.7-27.4,25.9-46.5,28.5C113.3,458.9,110.3,459.1,107.3,459.1z"/>
				<path class="st5" d="M193.1,155.1c61.5,0,115,45.5,123.4,108.1c1.9,13.9,1.4,27.6-1.2,40.7c26.3,4.4,47.8,25.4,51.5,53.2
					c4.6,34.1-19.4,65.4-53.5,70c-2.8,0.4-5.6,0.6-8.3,0.6c-17.1,0-32.9-7-44.4-18.6c-9.3,16.5-25.9,28.6-46.1,31.3
					c-2.8,0.4-5.6,0.6-8.3,0.6c-17.1,0-32.9-7-44.4-18.6c-9.3,16.5-25.9,28.6-46.1,31.3c-2.8,0.4-5.6,0.6-8.3,0.6
					c-30.7,0-57.5-22.8-61.7-54.1c-3.7-27.8,11.5-53.7,35.7-64.9c-5.9-11.9-10-25-11.9-38.9c-9.1-68.2,38.8-130.9,107-140
					C182.1,155.5,187.6,155.1,193.1,155.1 M193.1,145.1c-6,0-12,0.4-18,1.2c-35.6,4.8-67.3,23.1-89.1,51.7
					c-21.8,28.6-31.2,63.9-26.5,99.6c1.5,11.5,4.5,22.7,8.9,33.3c-9.9,6.4-18.3,15.2-24.1,25.6c-7.7,13.7-10.7,29.3-8.6,44.9
					c2.3,17.5,10.9,33.4,24.2,45c13.2,11.4,30,17.7,47.4,17.7c3.2,0,6.5-0.2,9.7-0.6c11.3-1.5,22.2-5.7,31.5-12.2
					c5.7-4,10.9-8.8,15.3-14.2c12.3,8.9,27.2,13.8,42.4,13.8c3.2,0,6.5-0.2,9.7-0.6c11.3-1.5,22.2-5.7,31.5-12.2
					c5.7-4,10.9-8.8,15.2-14.2c12.3,8.9,27.2,13.8,42.4,13.8c3.2,0,6.5-0.2,9.7-0.6c39.5-5.3,67.4-41.7,62.1-81.2
					c-2.1-15.6-9-29.8-20.1-41.1c-8.3-8.5-18.7-14.8-30-18.4c1.4-11.4,1.3-22.9-0.2-34.4c-4.3-32.5-20.4-62.3-45.1-83.8
					C256.8,156.9,225.5,145.1,193.1,145.1L193.1,145.1z"/>
			</g>
			<path class="st6" d="M69.2,295.1c8.4,13.8,22.9,1.2,23.4-14.3c0.6-17.8,2.1-38.2,11.7-39c10.1-0.8,12.1,9.7,13.2,14.6
				c3.7,15.9,30.3,13.4,27-8.7c-5.1-34.2,29.8-33.7,32.4-6.9c1.8,18.3,7.4,82.3,29,78.7c17-2.8,14.5-33.2,10.5-59.4
				c-4.2-27.7,24.6-30.5,30-16.8c4.2,10.5,8.6,22.5,22.6,20.1c14-2.4,9.2-25.8,6.5-39.8c-3.2-16.5,15.6-22.8,22.2-11.9
				c-25.5-38.6-72.4-62.9-121.3-56.4C108.2,164.4,60.1,226.8,69.2,295.1z"/>
			<g id="NUTS_14_">
				<path class="st7" d="M260.6,190.7c-0.4,1.7-1.1,3.5-2,5.3c-3.1,6.2-8,10-10.9,8.5c-0.1-0.1-0.3-0.2-0.4-0.3
					c-1,4.1-0.5,7.5,1.5,8.5c2.9,1.5,7.7-2.4,10.9-8.5C262.7,198.4,263,192.6,260.6,190.7z"/>
				<path class="st7" d="M167,245.1c-0.4,1.5-1,3.1-1.8,4.7c-2.8,5.5-7.2,9-9.8,7.7c-0.1-0.1-0.3-0.2-0.4-0.2
					c-0.9,3.7-0.5,6.7,1.4,7.7c2.6,1.3,7-2.1,9.8-7.7C168.8,252,169.1,246.7,167,245.1z"/>
				<path class="st7" d="M133.7,185.6c1.8-0.1,3.8,0,5.9,0.4c7.1,1.2,12.4,4.9,11.9,8.2c0,0.2-0.1,0.3-0.1,0.5
					c4.4-0.3,7.7-1.8,8.1-4.2c0.6-3.3-4.7-7-11.9-8.2C140.8,181.2,134.8,182.6,133.7,185.6z"/>
				<path class="st7" d="M283.2,265.9c1.6-0.1,3.3,0,5,0.3c6.1,1.1,10.7,4.2,10.2,7.1c0,0.1-0.1,0.3-0.1,0.4
					c3.8-0.2,6.6-1.5,6.9-3.6c0.5-2.9-4.1-6-10.2-7.1C289.3,262.1,284.2,263.3,283.2,265.9z"/>
				<path class="st7" d="M238.3,169.6c-1.8-2.3-7.1-1.1-12,2.6c0,2.3-0.8,5.1-2.2,7.9c-0.8,1.5-1.6,2.8-2.5,3.9
					c2.4,1.1,6.9-0.3,11.1-3.5C237.5,176.9,240.1,171.9,238.3,169.6z"/>
				<path class="st7" d="M117.7,270c-1.8-2.3-7.1-1.1-12,2.6c0,2.3-0.8,5.1-2.2,7.9c-0.8,1.5-1.6,2.8-2.5,3.9
					c2.4,1.1,6.9-0.3,11.1-3.5C116.9,277.3,119.5,272.3,117.7,270z"/>
				<path class="st7" d="M91.7,221.1c-0.9,2.7,3.2,6.5,9,8.4c1.9-1.3,4.6-2.3,7.8-2.7c1.6-0.2,3.2-0.3,4.7-0.2
					c-0.5-2.5-4.2-5.5-9.2-7.1C98.1,217.6,92.6,218.4,91.7,221.1z"/>
				<path class="st7" d="M258.1,281.1c-0.9,2.7,3.2,6.5,9,8.4c1.9-1.3,4.6-2.3,7.8-2.7c1.6-0.2,3.2-0.3,4.7-0.2
					c-0.5-2.5-4.2-5.5-9.2-7.1C264.5,277.6,259,278.3,258.1,281.1z"/>
				<path class="st7" d="M202.8,223.1c-1.6-0.2-3.2,0.8-4.6,2.6c0.2,0.6,0.3,1.2,0.5,1.9c1.5,7.4-0.1,14-3.6,14.7
					c-0.3,0.1-0.6,0.1-0.9,0c0.4,4.4,2.1,7.5,4.5,7.9c3.5,0.5,7.2-5.1,8.4-12.6C208.3,230.1,206.3,223.6,202.8,223.1z"/>
				<path class="st7" d="M170.5,209.3c0.8,1.1,2.3,1.8,4.2,1.9c0.2-0.4,0.5-0.8,0.8-1.1c3.3-4.3,7.9-6.2,10.4-4.2
					c0.2,0.2,0.4,0.4,0.6,0.6c2.2-2.2,3-4.8,1.8-6.5c-1.8-2.6-7.2-2.5-12.1,0C171.2,202.6,168.7,206.8,170.5,209.3z"/>
				<path class="st7" d="M269.4,233.5c0.8,1.1,2.3,1.8,4.2,1.9c0.2-0.4,0.5-0.8,0.8-1.1c3.3-4.3,7.9-6.2,10.4-4.2
					c0.2,0.2,0.4,0.4,0.6,0.6c2.2-2.2,3-4.8,1.8-6.5c-1.8-2.6-7.2-2.5-12.1,0C270.2,226.7,267.6,230.9,269.4,233.5z"/>
				<path class="st7" d="M174.7,169.7c0.1,1.4,1,2.7,2.5,3.8c0.4-0.2,0.8-0.4,1.3-0.5c5.1-1.9,10-1,11,1.9c0.1,0.3,0.1,0.5,0.2,0.8
					c3.1-0.7,5.1-2.4,5-4.6c-0.2-3.1-4.8-6-10.3-6.3C178.9,164.4,174.5,166.6,174.7,169.7z"/>
				<path class="st7" d="M86.2,252.8c-1.2-0.5-2.7-0.1-4.2,1c0,0.5,0,1-0.1,1.6c-0.5,6.2-3.3,11-6.2,10.8c-0.2,0-0.5-0.1-0.7-0.2
					c-0.7,3.5-0.1,6.4,1.7,7.3c2.6,1.2,6.9-2.4,9.5-8C88.8,259.6,88.8,254,86.2,252.8z"/>
				<path class="st7" d="M137,217.8c-1.8-0.9-2.3-4-1.4-7.7c-4.3-2.7-8.7-3.4-10.2-1.4c-1.8,2.3,0.8,7.2,5.7,11
					c4.9,3.8,10.3,5,12.1,2.7c1.1-1.4,0.6-3.7-1.1-6.2C140.2,217.8,138.4,218.5,137,217.8z"/>
				<path class="st7" d="M239.1,246.5c-1.8-2.3-7.1-1.1-12,2.6c0,2.3-0.8,5.1-2.2,7.9c-0.8,1.5-1.6,2.8-2.5,3.9
					c2.4,1.1,6.9-0.3,11.1-3.5C238.3,253.8,240.8,248.8,239.1,246.5z"/>
				<path class="st7" d="M228.1,217.3c1.3-2.2-1.3-6.3-6-9.2c-1.9,0.7-4.5,1-7.3,0.7c-1.5-0.2-2.8-0.5-4.1-0.9
					c-0.1,2.3,2.4,5.6,6.4,8.1C221.8,218.9,226.8,219.5,228.1,217.3z"/>
				<path class="st7" d="M137.7,294.7c-1.8-0.9-2.3-4-1.4-7.7c-4.3-2.7-8.7-3.4-10.2-1.4c-1.8,2.3,0.8,7.2,5.7,11
					c4.9,3.8,10.3,5,12.1,2.7c1.1-1.4,0.6-3.7-1.1-6.2C141,294.7,139.1,295.4,137.7,294.7z"/>
			</g>
		</g>
		<g>
			<g>
				<path class="st10" d="M504.7,455.9c-2.5,0-4.9-0.1-7.4-0.4c-19.1-2.1-36-12-47.2-27.4c-12.2,10.8-28.2,16.9-44.6,16.9
					c-2.5,0-4.9-0.1-7.4-0.4c-19.1-2.1-36-12-47.2-27.4c-12.2,10.8-28.2,16.9-44.6,16.9c-2.5,0-4.9-0.1-7.4-0.4
					c-36.9-4-63.6-37.3-59.6-74.2c3-27.9,22.6-50.5,49.3-57.7c-2.2-12.3-2.7-24.8-1.3-37.4c7.2-65.9,62.5-115.6,128.7-115.6
					c4.7,0,9.5,0.3,14.2,0.8c71,7.8,122.5,71.9,114.8,142.9c-1.4,12.6-4.5,24.7-9.3,36.2c24.5,12.8,38.7,39.1,35.7,67
					C567.8,430.1,539.1,455.9,504.7,455.9C504.7,455.9,504.7,455.9,504.7,455.9z"/>
				<path class="st5" d="M416.2,154.1c4.5,0,9.1,0.2,13.7,0.7c68.4,7.5,117.8,69,110.3,137.4c-1.5,14-5.3,27.1-10.9,39.2
					c24.5,10.5,40.3,36.1,37.3,64c-3.5,31.9-30.5,55.5-61.9,55.5c-2.3,0-4.5-0.1-6.8-0.4c-20.3-2.2-37.2-13.9-46.9-30.2
					c-11.5,12.2-27.7,19.7-45.4,19.7c-2.3,0-4.5-0.1-6.8-0.4c-20.3-2.2-37.2-13.9-46.8-30.2c-11.5,12.2-27.7,19.7-45.4,19.7
					c-2.3,0-4.5-0.1-6.8-0.4c-34.2-3.7-58.9-34.5-55.2-68.7c3-27.9,24-49.4,50.2-54.4c-2.9-13-3.7-26.7-2.2-40.6
					C299.4,201.4,353.4,154.1,416.2,154.1 M416.2,144.1c-33,0-64.7,12.1-89.4,34.2c-24.9,22.2-40.6,52.7-44.2,85.9
					c-1.3,11.5-1,23.1,0.6,34.4c-11.2,3.8-21.4,10.4-29.6,19.1c-10.8,11.5-17.4,25.9-19.1,41.5c-2.1,19.2,3.4,38.1,15.5,53.1
					c12.1,15.1,29.3,24.5,48.5,26.6c2.6,0.3,5.3,0.4,7.9,0.4c15.8,0,31.3-5.3,43.8-14.8c4.5,5.3,9.8,10,15.6,13.8
					c9.5,6.2,20.5,10.2,31.8,11.4c2.6,0.3,5.3,0.4,7.9,0.4c15.8,0,31.3-5.3,43.8-14.8c4.5,5.3,9.8,10,15.6,13.8
					c9.5,6.2,20.5,10.2,31.8,11.4c2.6,0.3,5.3,0.4,7.9,0.4c17.7,0,34.8-6.5,48-18.3c13.4-11.9,21.8-28.3,23.8-46.1
					c1.7-15.7-1.6-31.1-9.7-44.7c-6.1-10.2-14.6-18.9-24.7-25c4.1-10.7,6.8-21.9,8-33.5c3.9-35.7-6.3-70.9-28.9-98.9
					c-22.5-28-54.6-45.6-90.3-49.5C426.1,144.3,421.1,144.1,416.2,144.1L416.2,144.1z"/>
			</g>
			<path class="st6" d="M292.5,264c4.8,15.4,21.9,6.6,26.1-8.3c4.8-17.2,11.2-36.6,20.7-35.1c10,1.6,9.4,12.3,9.3,17.4
				c-0.3,16.4,26.2,20.3,28.3-2c3.2-34.4,37-25.6,33.1,1.1c-2.7,18.2-12.5,81.7,9.3,83.4c17.2,1.4,22-28.8,24.4-55.2
				c2.5-27.9,31.2-23.7,33.2-9.2c1.5,11.2,3,23.9,17.2,24.9c14.2,1,15.1-22.9,15.8-37.1c0.8-16.8,20.6-18.4,24.4-6.2
				C518.7,194,479,159.2,430,153.8C361.6,146.4,300,195.5,292.5,264z"/>
			<g id="NUTS_13_">
				<path class="st7" d="M503.3,208.4c-0.8,1.5-1.9,3.1-3.2,4.6c-4.5,5.2-10.2,7.8-12.6,5.7c-0.1-0.1-0.2-0.2-0.3-0.4
					c-2,3.7-2.3,7.2-0.6,8.7c2.4,2.1,8.1-0.4,12.6-5.7C503.5,216.4,505.2,210.8,503.3,208.4z"/>
				<path class="st7" d="M399.4,238.8c-0.7,1.4-1.7,2.8-2.9,4.2c-4.1,4.7-9.1,7-11.3,5.1c-0.1-0.1-0.2-0.2-0.3-0.3
					c-1.8,3.4-2.1,6.4-0.5,7.8c2.2,1.9,7.3-0.4,11.3-5.1C399.5,246,401.1,240.9,399.4,238.8z"/>
				<path class="st7" d="M381.3,173.1c1.8,0.3,3.7,0.9,5.6,1.7c6.6,2.9,10.9,7.7,9.5,10.8c-0.1,0.2-0.2,0.3-0.3,0.5
					c4.3,0.8,7.9,0.1,8.8-2.1c1.4-3.1-2.9-7.9-9.5-10.8C389.2,170.5,383.1,170.5,381.3,173.1z"/>
				<path class="st7" d="M507.3,286.8c1.5,0.3,3.2,0.8,4.8,1.5c5.7,2.5,9.4,6.7,8.2,9.3c-0.1,0.1-0.1,0.3-0.2,0.4
					c3.7,0.7,6.8,0.1,7.6-1.8c1.2-2.7-2.5-6.8-8.2-9.3C514.1,284.6,508.8,284.6,507.3,286.8z"/>
				<path class="st7" d="M486.7,182.6c-1.2-2.6-6.7-2.8-12.3-0.3c-0.6,2.2-2,4.8-4.1,7.2c-1.1,1.3-2.2,2.3-3.4,3.2
					c2,1.6,6.8,1.4,11.6-0.7C484.2,189.5,487.9,185.3,486.7,182.6z"/>
				<path class="st7" d="M345.6,251.2c-1.2-2.6-6.7-2.8-12.3-0.3c-0.6,2.2-2,4.8-4.1,7.2c-1.1,1.3-2.2,2.3-3.4,3.2
					c2,1.6,6.8,1.4,11.6-0.7C343.1,258.1,346.7,253.9,345.6,251.2z"/>
				<path class="st7" d="M332,197.5c-1.5,2.5,1.5,7,6.8,10.3c2.1-0.8,5.1-1.1,8.2-0.8c1.7,0.2,3.2,0.5,4.6,0.9
					c0.1-2.6-2.7-6.3-7.2-9.1C339.1,195.7,333.6,195.1,332,197.5z"/>
				<path class="st7" d="M479.3,295.6c-1.5,2.5,1.5,7,6.8,10.3c2.1-0.8,5.1-1.1,8.2-0.8c1.7,0.2,3.2,0.5,4.6,0.9
					c0.1-2.6-2.7-6.3-7.2-9.1C486.3,293.7,480.8,293.1,479.3,295.6z"/>
				<path class="st7" d="M439.5,226c-1.5-0.6-3.3,0-5.1,1.4c0,0.6,0,1.3,0,1.9c-0.3,7.6-3.4,13.6-7,13.4c-0.3,0-0.6-0.1-0.9-0.2
					c-0.6,4.3,0.2,7.8,2.5,8.7c3.3,1.3,8.3-3.2,11.1-10.2C443.1,234.1,442.8,227.4,439.5,226z"/>
				<path class="st7" d="M411.3,204.9c0.5,1.3,1.8,2.3,3.6,2.8c0.3-0.3,0.7-0.6,1-0.9c4.2-3.4,9.2-4.1,11.1-1.6
					c0.2,0.2,0.3,0.5,0.4,0.7c2.7-1.6,4.1-3.9,3.3-5.9c-1.1-2.9-6.4-4.2-11.7-2.8C413.7,198.6,410.2,202,411.3,204.9z"/>
				<path class="st7" d="M501.7,252c0.5,1.3,1.8,2.3,3.6,2.8c0.3-0.3,0.7-0.6,1-0.9c4.2-3.4,9.2-4.1,11.1-1.6
					c0.2,0.2,0.3,0.5,0.4,0.7c2.7-1.6,4.1-3.9,3.3-5.9c-1.1-2.9-6.4-4.2-11.7-2.8C504,245.7,500.5,249.1,501.7,252z"/>
				<path class="st7" d="M424.9,167.5c-0.3,1.4,0.3,2.9,1.6,4.3c0.4-0.1,0.9-0.2,1.4-0.2c5.4-0.6,10,1.4,10.3,4.5c0,0.3,0,0.5,0,0.8
					c3.1,0,5.5-1.2,5.9-3.3c0.6-3.1-3.2-6.9-8.5-8.6C430.2,163.3,425.5,164.4,424.9,167.5z"/>
				<path class="st7" d="M319.1,227c-1-0.8-2.6-0.8-4.3,0c-0.1,0.5-0.3,1-0.5,1.5c-2,5.9-5.8,9.9-8.6,9c-0.2-0.1-0.5-0.2-0.7-0.4
					c-1.5,3.3-1.6,6.2-0.1,7.5c2.3,1.8,7.2-0.7,11.1-5.5C320,234.2,321.3,228.8,319.1,227z"/>
				<path class="st7" d="M376.8,205.1c-1.6-1.3-1.2-4.4,0.5-7.8c-3.6-3.7-7.6-5.4-9.6-3.8c-2.3,1.8-1,7.2,2.9,12.1s8.8,7.3,11.1,5.5
					c1.4-1.1,1.4-3.5,0.4-6.3C380,206,378,206.1,376.8,205.1z"/>
				<path class="st7" d="M469,257.5c-1.2-2.6-6.7-2.8-12.3-0.3c-0.6,2.2-2,4.8-4.1,7.2c-1.1,1.3-2.2,2.3-3.4,3.2
					c2,1.6,6.8,1.4,11.6-0.7C466.5,264.3,470.2,260.1,469,257.5z"/>
				<path class="st7" d="M465.4,226.5c1.8-1.8,0.2-6.4-3.6-10.3c-2,0.2-4.6-0.1-7.3-1.1c-1.4-0.5-2.7-1.1-3.8-1.8
					c-0.7,2.2,1,6,4.3,9.4C458.9,226.5,463.6,228.3,465.4,226.5z"/>
				<path class="st7" d="M359.1,280c-1.6-1.3-1.2-4.4,0.5-7.8c-3.6-3.7-7.6-5.4-9.6-3.8c-2.3,1.8-1,7.2,2.9,12.1
					c3.9,4.9,8.8,7.3,11.1,5.5c1.4-1.1,1.4-3.5,0.4-6.3C362.3,280.8,360.3,281,359.1,280z"/>
			</g>
		</g>
		<path class="st8" d="M352.5,140.5c-8.6-10.2-31-4.9-33.4,13.1c-1.6,12.4,4,25.9,17.2,30.7c15.3,5.6,36.8,2.4,47.9-7.6
			c9.5-8.5,13.9-22.8,8.9-34.2c-7.4-17-31.5-15.4-36.5-2.6c-4.3-14.3,0.1-30.8,30.2-36.1l2.7-5.6
			C389.6,98.2,341.5,103.8,352.5,140.5z"/>
	</g>
</g>
</svg>
